<svg width="30" height="26" fill="none" xmlns="http://www.w3.org/2000/svg"><path fill-rule="evenodd" clip-rule="evenodd" d="M10.91 2.727c0 .41-.274.682-.683.682-.409 0-.682-.273-.682-.682v-.682C9.545.886 10.432 0 11.591 0h6.818c1.16 0 2.046.886 2.046 2.045v.682c0 .41-.273.682-.682.682-.41 0-.682-.273-.682-.682v-.682c0-.409-.273-.681-.682-.681h-6.818c-.41 0-.682.272-.682.681v.682zm17.044 2.046H2.046C.886 4.773 0 5.659 0 6.818v4.364c0 .954.682 1.772 1.568 1.977l10.705 2.386v2.182c0 .41.273.682.681.682h4.091c.41 0 .682-.273.682-.682v-2.181l10.705-2.387A2.047 2.047 0 0030 11.182V6.818c0-1.159-.886-2.045-2.046-2.045zm-11.59 12.273h-2.728v-2.728h2.728v2.728zm12.272-5.864c0 .34-.204.614-.545.682l-10.364 2.318v-.546c0-.409-.273-.681-.681-.681h-4.091c-.41 0-.682.272-.682.681v.546L1.909 11.864c-.34-.069-.545-.341-.545-.682V6.818c0-.409.272-.682.681-.682h25.91c.409 0 .681.273.681.682v4.364zm0 3.136c-.409 0-.681.273-.681.682v8.864c0 .409-.273.681-.682.681H2.727c-.409 0-.682-.272-.682-.681V15c0-.41-.272-.682-.681-.682-.41 0-.682.273-.682.682v8.864c0 1.159.886 2.045 2.045 2.045h24.546c1.159 0 2.045-.886 2.045-2.045V15c0-.41-.273-.682-.682-.682z" fill="#000"/></svg>