<svg width="30" height="30" fill="none" xmlns="http://www.w3.org/2000/svg"><path d="M16.588 11.242c.378 0 .737-.33.721-.721-.016-.391-.317-.722-.721-.722-.378 0-.737.33-.721.722.016.39.314.721.72.721z" fill="#000"/><path d="M27.462 9.655c.013.029.09.202.017.035.019.042.035.087.054.132l.115.288a14.27 14.27 0 01.773 2.924c.01.058.02.116.026.173-.016-.166-.003-.032 0 .01.013.096.022.192.032.288a14.608 14.608 0 01-.026 3.225c-.003.036-.01.074-.013.11-.019.16.026-.177.003-.016l-.038.26a14.335 14.335 0 01-.699 2.676 8.46 8.46 0 01-.154.398c-.022.051-.125.276-.025.064-.036.077-.068.157-.103.234a14.156 14.156 0 01-1.33 2.353c-.08.116-.164.228-.247.343-.042.055-.087.11-.129.167.12-.173.039-.051.01-.013-.026.032-.051.067-.077.1-.192.24-.391.474-.6.702a13.885 13.885 0 01-1.605 1.51l-.183.144c-.036.029-.11.07.045-.035-.045.032-.09.067-.135.102a14.4 14.4 0 01-2.69 1.584 7.123 7.123 0 01-.195.086c-.02.007-.151.065-.032.013.121-.051-.052.02-.071.03a13.31 13.31 0 01-.843.31 14 14 0 01-2.446.584c-.045.006-.087.01-.132.019.218-.039.064-.01.016-.003a14.628 14.628 0 01-2.863.07c-.147-.01-.294-.026-.442-.038l-.24-.03c-.036-.002-.074-.009-.11-.012.225.02.049.006-.003 0a14.601 14.601 0 01-2.693-.664c-.14-.05-.282-.102-.42-.157a5.149 5.149 0 01-.198-.08c-.026-.01-.052-.022-.08-.032-.071-.029-.052-.022.054.023-.026-.01-.051-.023-.077-.033a15.342 15.342 0 01-.808-.378 14.522 14.522 0 01-1.91-1.17l-.17-.125a2.576 2.576 0 01-.087-.067 14.653 14.653 0 01-2.228-2.16c-.048-.062-.1-.12-.148-.18-.022-.03-.045-.055-.064-.084-.013-.02-.128-.16-.048-.061.08.1-.01-.013-.02-.029l-.063-.083-.138-.186a14.083 14.083 0 01-1.164-1.914c-.14-.279-.263-.564-.394-.85.1.209-.007-.012-.026-.064l-.077-.198a13.853 13.853 0 01-.657-2.235 17.29 17.29 0 01-.157-.907c-.023-.16.022.176.003.016l-.01-.087c-.01-.074-.016-.147-.025-.221-.016-.164-.032-.324-.042-.487a14.96 14.96 0 01-.01-1.934 18.2 18.2 0 01.087-.93c.02-.16-.026.177-.003.017l.016-.11.038-.236a13.878 13.878 0 01.558-2.228c.1-.299.212-.59.33-.882.016-.042.058-.122-.022.054.02-.038.032-.077.051-.118.03-.065.058-.132.087-.196a13.919 13.919 0 011.619-2.719.455.455 0 00.02-.028c-.081.099.009-.013.022-.026.044-.055.086-.11.131-.164a14.623 14.623 0 012.235-2.215l.099-.077c.093-.074-.035.029-.045.035.064-.041.122-.093.186-.137a14.029 14.029 0 012.757-1.6c.055-.023.279-.106.064-.03.068-.022.132-.054.199-.08.144-.057.292-.115.44-.166a13.665 13.665 0 012.686-.683c.074-.01.144-.019.218-.032-.237.042.013 0 .07-.006a14.3 14.3 0 013.228-.016c.097.01.193.022.29.035.195.026-.158-.022.038.006.057.01.115.016.173.026.407.064.814.144 1.215.244a13.535 13.535 0 011.65.52c.087.031.177.066.264.102.051.022.106.041.157.064a3.92 3.92 0 00.035.016c.186.08.353.128.555.074a.73.73 0 00.43-.33c.163-.312.112-.828-.26-.988A15.368 15.368 0 0015.95.03c-1.41-.093-2.84.026-4.222.327C9.208.913 6.855 2.15 4.94 3.872a15.07 15.07 0 00-4.168 6.357c-.86 2.536-.994 5.3-.446 7.916.533 2.526 1.75 4.889 3.46 6.822a15.107 15.107 0 006.319 4.219c2.526.881 5.29 1.038 7.909.513 2.535-.51 4.905-1.709 6.854-3.402a15.053 15.053 0 004.27-6.283c.994-2.774 1.122-5.851.404-8.701a15.334 15.334 0 00-.833-2.395c-.151-.346-.686-.452-.988-.26-.362.24-.423.625-.26.997z" fill="#000"/><path d="M19.483 14.137c.378 0 .737-.33.721-.721-.016-.391-.317-.722-.721-.722-.378 0-.737.33-.721.722.016.39.317.721.721.721zm-2.895-2.895c.378 0 .737-.33.721-.721-.016-.391-.317-.722-.721-.722-.378 0-.737.33-.721.722.016.39.314.721.72.721z" fill="#000"/><path d="M23.782 13.089c.029.128.055.253.077.381.013.07.026.138.035.209.004.028.01.06.013.09.003.022.003.14.006.054.007-.093.004.029.007.054l.01.09.019.183a10.021 10.021 0 01-.035 2.068c-.017.134.022-.15.003-.016-.01.057-.016.115-.026.173a9.434 9.434 0 01-.442 1.718l-.097.26-.048.118c-.01.026-.022.052-.032.08-.035.087.061-.137.023-.054-.08.173-.157.35-.244.52a9.182 9.182 0 01-.914 1.468l-.038.051c-.045.064.051-.067.048-.064-.032.035-.06.077-.093.115-.06.077-.125.151-.19.228a9.968 9.968 0 01-1.227 1.205c-.032.026-.064.055-.1.08a81.203 81.203 0 01-.002.004c-.08.054-.158.119-.238.176a9.344 9.344 0 01-1.49.882c-.077.035-.154.073-.231.106-.023.01-.186.08-.07.032.114-.048-.068.025-.09.038a9.597 9.597 0 01-1.1.366c-.388.102-.78.173-1.177.237-.006 0 .164-.02.084-.013l-.068.01c-.051.006-.102.013-.154.016a12.657 12.657 0 01-.917.051 9.53 9.53 0 01-1.208-.064c-.035-.003-.202-.026-.08-.01.121.016-.03-.003-.058-.01a9.495 9.495 0 01-.898-.179 9.653 9.653 0 01-1.11-.346c-.086-.032-.172-.068-.259-.103-.118-.048.141.064-.003-.003-.045-.02-.09-.042-.135-.06a10.406 10.406 0 01-1.507-.856 5.56 5.56 0 01-.22-.161c-.04-.029-.08-.058-.12-.09-.092-.07.123.096-.002-.003a9.338 9.338 0 01-1.25-1.183 11.948 11.948 0 01-.366-.436c-.077-.096.1.134-.003-.003l-.077-.103a9.751 9.751 0 01-1.026-1.75c-.016-.039-.036-.077-.052-.116-.07-.16.045.112-.003-.003a9.662 9.662 0 01-.65-2.427 10.139 10.139 0 01-.036-1.837 9.33 9.33 0 01.026-.288c.003-.045.01-.087.016-.132l.01-.067c.01-.093-.026.17-.007.038a9.973 9.973 0 01.635-2.324c-.045.109.02-.039.032-.07l.125-.27a10.28 10.28 0 01.875-1.468c.055-.074.112-.144.164-.218-.116.173-.03.038.003-.003l.106-.132a10.508 10.508 0 011.193-1.212c.07-.057.14-.118.21-.173.04-.029.081-.057.116-.093a.924.924 0 00-.064.048c.029-.019.055-.041.083-.064a9.736 9.736 0 011.452-.898c.17-.083.357-.147.52-.243-.01.006-.167.067-.054.022.019-.01.038-.016.057-.025l.119-.048a9.556 9.556 0 012.004-.542c.051-.01.102-.016.15-.023.135-.019-.15.02-.016.004a9.624 9.624 0 012.065-.035l.183.019c.041.003.08.01.121.012.013 0 .116.02.026.004-.086-.016.087.012.112.016.07.01.138.022.209.035.138.026.275.051.41.083.369.08.798-.109.888-.503.084-.366-.109-.802-.503-.888-1.904-.417-3.927-.324-5.768.336-1.583.568-3.03 1.5-4.177 2.738a10.49 10.49 0 00-2.433 4.38 10.592 10.592 0 00-.055 5.241 10.468 10.468 0 002.363 4.45 10.523 10.523 0 004.123 2.812c1.648.625 3.433.782 5.174.542a10.175 10.175 0 004.572-1.857c1.353-.99 2.481-2.279 3.228-3.786a10.51 10.51 0 001.093-5.2 11.464 11.464 0 00-.24-1.78c-.08-.368-.529-.618-.888-.502a.747.747 0 00-.497.89z" fill="#000"/><path d="M19.483 14.137c.378 0 .737-.33.721-.721-.016-.391-.317-.722-.721-.722-.378 0-.737.33-.721.722.016.39.317.721.721.721z" fill="#000"/><path d="M18.787 13.608a5.422 5.422 0 01.212.811c.02.048.013.122.02.173a4.472 4.472 0 01.009.728l-.01.135c-.003.022-.003.045-.006.067-.013.115-.003.022.006-.038-.035.192-.067.384-.119.577-.025.09-.05.18-.08.269-.028.09-.09.19-.102.282 0 .003.064-.144.032-.074-.013.026-.023.052-.035.077a6.8 6.8 0 01-.192.378c-.1.174-.212.33-.325.494-.041.064.052-.067.049-.06a9.002 9.002 0 00-.039.047c-.032.039-.06.077-.093.113-.064.073-.128.147-.199.218a5.42 5.42 0 01-.416.384l-.049.039c-.048.038-.077.025.045-.035-.035.016-.07.05-.102.073a4.555 4.555 0 01-.77.446c-.038.016-.08.032-.115.051-.003.003.147-.057.074-.032l-.08.032c-.094.035-.19.068-.286.1a4.94 4.94 0 01-.57.137c-.042.007-.087.013-.132.023-.125.02.164-.02-.006 0a5 5 0 01-.917.01 2.589 2.589 0 01-.154-.017c-.08-.006.09.013.083.013a5.085 5.085 0 01-.385-.07 4.26 4.26 0 01-.557-.164c-.042-.016-.08-.029-.119-.045-.163-.064.109.052-.006 0a4.715 4.715 0 01-.76-.42l-.122-.083c-.016-.013-.032-.026-.051-.038-.064-.042.067.05.06.048-.07-.068-.153-.122-.227-.19a5.121 5.121 0 01-.417-.416c-.06-.067-.115-.141-.176-.209-.048-.057.051.068.048.064-.006-.015-.026-.035-.038-.05a4.716 4.716 0 01-.507-.878c-.067-.145.045.111-.003-.004l-.055-.142a4.611 4.611 0 01-.166-.58 6.87 6.87 0 01-.055-.279 2.964 2.964 0 00-.01-.064c-.012-.08.013.09.01.084-.003-.058-.013-.119-.02-.177a4.771 4.771 0 01.017-.962c.01-.096-.023.158-.01.061.01-.05.016-.102.026-.15a5.104 5.104 0 01.227-.834c.01-.022.077-.189.026-.074-.048.116.029-.064.042-.09a4.48 4.48 0 01.423-.73c.026-.036.067-.08.087-.119.003-.003-.097.122-.049.064.02-.022.036-.045.052-.064a4.301 4.301 0 01.586-.6c.039-.031.074-.063.113-.092l.048-.039c.067-.054-.151.11-.03.023.155-.11.312-.215.479-.311.08-.045.16-.09.243-.129a1.82 1.82 0 01.116-.054c.025-.013.05-.023.077-.035.09-.042-.03.019-.055.022.087-.013.176-.07.26-.096.096-.032.192-.061.288-.087.19-.051.382-.083.577-.118-.218.038-.048.006.007.003a5.15 5.15 0 01.853-.006c.057.003.115.012.176.015l-.048-.006c.035-.006.106.016.144.023.253.044.5.112.744.198.356.125.805-.14.888-.503.093-.4-.122-.753-.504-.888-1.933-.673-4.132-.167-5.6 1.247-1.372 1.324-1.937 3.305-1.526 5.162.404 1.824 1.776 3.305 3.517 3.943 1.811.66 3.847.244 5.328-.956 1.535-1.243 2.212-3.27 1.888-5.196a4.602 4.602 0 00-.208-.802c-.125-.356-.5-.628-.888-.503-.34.102-.625.494-.49.875zm9.98-9.884L26.79 5.702l-3.129 3.13-.724.724.51-.212c-1.017-.006-2.033-.016-3.05-.022-.144 0-.288-.003-.435-.003l.721.72c-.006-1.015-.016-2.032-.022-3.048 0-.144-.004-.288-.004-.436l-.211.51 1.978-1.978 3.129-3.13.724-.724-1.23-.51c.006 1.017.015 2.033.022 3.05 0 .144.003.288.003.435a.733.733 0 00.721.722c1.016.006 2.033.016 3.05.022.143 0 .288.003.435.003.378.003.738-.333.721-.721-.016-.394-.317-.718-.72-.721l-3.05-.023c-.144 0-.288-.003-.436-.003l.722.721-.023-3.049c0-.144-.003-.288-.003-.436-.003-.622-.789-.955-1.231-.51L24.14 1.33l-2.308 2.309-1.994 1.994c-.135.134-.276.266-.407.407-.282.308-.218.712-.218 1.093l.019 2.84v.068a.733.733 0 00.721.721l2.562.02c.304.003.615.015.92.006.359-.013.548-.247.773-.475l1.846-1.846 2.363-2.363c.445-.446.904-.882 1.34-1.34l.022-.023c.267-.266.289-.756 0-1.019a.73.73 0 00-1.013.003z" fill="#000"/><path d="M15.553 15.47l1.657-1.657 2.654-2.654.606-.606c.267-.266.289-.757 0-1.02-.288-.263-.734-.285-1.02 0l-1.656 1.658-2.655 2.654-.606.606c-.266.266-.288.757 0 1.02.289.266.734.285 1.02 0z" fill="#000"/></svg>