<svg width="30" height="30" fill="none" xmlns="http://www.w3.org/2000/svg"><path d="M15.054 29.976A15 15 0 013.598 5.23a15.088 15.088 0 0117.499-3.954.714.714 0 11-.582 1.304 13.57 13.57 0 00-16.9 19.781 13.57 13.57 0 0024.956-7.385V13.67a.714.714 0 011.429 0v1.307a15.085 15.085 0 01-10.746 14.381 14.767 14.767 0 01-4.2.618z" fill="#1E1E1E"/><path d="M15 18.57a.714.714 0 01-.503-.208l-4.285-4.285a.714.714 0 111.01-1.01l3.779 3.777L28.779 3.053a.715.715 0 011.01 1.011L15.504 18.348a.714.714 0 01-.507.207l.004.014z" fill="#1E1E1E"/></svg>