<svg width="30" height="30" fill="none" xmlns="http://www.w3.org/2000/svg"><path d="M8.686 24.934l16.25-16.25-3.62-3.62-16.25 16.25 3.62 3.62zm5.525-3.293L9.244 26.61l-.265.175-7.894 3.158a.79.79 0 01-1.026-1.027l3.157-7.894.175-.265 4.968-4.967L.233 7.663a.79.79 0 010-1.116L6.55.232a.79.79 0 011.116 0l8.125 8.125L23.453.694a2.366 2.366 0 013.349 0l2.503 2.504a2.367 2.367 0 010 3.35l-7.662 7.662 8.125 8.125a.79.79 0 010 1.116l-6.315 6.316a.79.79 0 01-1.116 0l-8.126-8.125zm1.117-1.116l7.567 7.567 5.199-5.199-2.042-2.041-1.02 1.02c-.744.745-1.86-.372-1.116-1.116l1.02-1.02-2.041-2.042-2.6 2.6c-.744.744-1.86-.372-1.116-1.117l2.6-2.599-1.252-1.252-5.2 5.2zm-5.853-5.853l5.199-5.199-1.252-1.251-1.02 1.02c-.745.744-1.861-.372-1.117-1.116l1.02-1.02-2.04-2.042-2.6 2.6c-.744.744-1.86-.373-1.116-1.117l2.599-2.6-2.041-2.04-5.2 5.198 7.568 7.567zM7.28 25.762L4.237 22.72l-2.029 5.072 5.073-2.028zM22.432 3.949l3.62 3.62L28.19 5.43a.788.788 0 000-1.116L25.685 1.81a.788.788 0 00-1.116 0l-2.137 2.138z" fill="#000"/></svg>