<svg width="30" height="28" fill="none" xmlns="http://www.w3.org/2000/svg"><path d="M.667 0A.667.667 0 000 .667v26c0 .368.298.666.667.666h28.666a.667.667 0 000-1.333h-28V.667A.667.667 0 00.667 0zM25 3.667A2.343 2.343 0 0022.667 6c0 .526.18 1.004.479 1.396l-3.959 5.656a2.312 2.312 0 00-.52-.052 2.32 2.32 0 00-1.667.698l-2.792-1.625c.08-.235.125-.48.125-.74A2.343 2.343 0 0012 9a2.343 2.343 0 00-2.333 2.333c0 .527.18 1.004.479 1.396l-3.959 5.657a2.307 2.307 0 00-.52-.053 2.343 2.343 0 00-2.334 2.334A2.343 2.343 0 005.667 23 2.343 2.343 0 008 20.667c0-.625-.25-1.205-.656-1.625l3.864-5.521a2.3 2.3 0 00.792.146c.542 0 1.04-.197 1.438-.51l2.947 1.718c-.03.148-.052.302-.052.458a2.344 2.344 0 002.334 2.334A2.344 2.344 0 0021 15.333c0-.624-.25-1.204-.656-1.625l3.864-5.52c.248.09.514.145.792.145A2.343 2.343 0 0027.333 6 2.343 2.343 0 0025 3.667zM25 5c.56 0 1 .44 1 1s-.44 1-1 1-1-.44-1-1 .44-1 1-1zm-13 5.333c.56 0 1 .44 1 1s-.44 1-1 1-1-.44-1-1 .44-1 1-1zm6.667 4c.56 0 1 .44 1 1s-.44 1-1 1-1-.44-1-1 .44-1 1-1zm-13 5.334c.56 0 1 .44 1 1s-.44 1-1 1-1-.44-1-1 .44-1 1-1z" fill="#1E1E1E"/></svg>