<svg width="30" height="30" fill="none" xmlns="http://www.w3.org/2000/svg"><path d="M25.914 3.623a3.89 3.89 0 00-3.87-3.556 3.89 3.89 0 00-3.87 3.556h-3.25L7.68 0 0 3.84V30l7.68-3.84 6.976 3.488h14.925V3.623h-3.667zm-3.87-2.418a2.753 2.753 0 012.75 2.75c0 1.037-1.554 2.963-2.75 4.18-1.196-1.216-2.75-3.142-2.75-4.18a2.753 2.753 0 012.75-2.75zm-13.795.352l5.973 2.986v23.616l-5.973-2.986V1.557zM1.138 4.543L7.11 1.557v23.616l-5.973 2.986V4.543zm27.306 23.968H15.36V4.76h2.935c.61 1.935 3.044 4.288 3.357 4.584l.392.37.391-.37c.313-.296 2.747-2.649 3.358-4.585h2.65v23.75z" fill="#0084FF"/><path d="M24.674 12.085a.569.569 0 00-.804 0l-1.968 1.968-1.968-1.968a.569.569 0 10-.804.804l1.968 1.968-1.968 1.968a.569.569 0 10.804.805l1.968-1.968 1.968 1.968a.567.567 0 00.805 0 .569.569 0 000-.805l-1.968-1.968 1.968-1.967a.57.57 0 000-.805zm-.876-7.893c0-.968-.787-1.755-1.754-1.755s-1.754.787-1.754 1.755c0 .967.787 1.754 1.754 1.754s1.754-.787 1.754-1.754zm-2.37 0a.617.617 0 111.234.001.617.617 0 01-1.235-.001z" fill="#0084FF"/></svg>