<svg width="30" height="30" fill="none" xmlns="http://www.w3.org/2000/svg"><path d="M25.625 21.25H4.375a4.375 4.375 0 100 8.75h21.25a4.375 4.375 0 100-8.75zm0 7.5H4.375a3.125 3.125 0 110-6.25h21.25a3.125 3.125 0 110 6.25zM5 23.75a1.875 1.875 0 100 3.75 1.875 1.875 0 000-3.75zm0 2.5a.626.626 0 110-1.251.626.626 0 010 1.251zm5-2.5a1.875 1.875 0 100 3.75 1.875 1.875 0 000-3.75zm0 2.5a.626.626 0 110-1.251.626.626 0 010 1.251zm5-2.5a1.875 1.875 0 100 3.75 1.875 1.875 0 000-3.75zm0 2.5A.625.625 0 1115 25a.625.625 0 010 1.25zm5-2.5a1.875 1.875 0 100 3.75 1.875 1.875 0 000-3.75zm0 2.5A.625.625 0 1120 25a.625.625 0 010 1.25zm5-2.5a1.875 1.875 0 100 3.75 1.875 1.875 0 000-3.75zm0 2.5a.626.626 0 110-1.251.626.626 0 010 1.251zM10 8.125a.625.625 0 00-.625.625v10a.625.625 0 00.625.625h10a.624.624 0 00.625-.625v-10A.625.625 0 0020 8.125H10zm9.375 10h-8.75v-8.75h8.75v8.75zm2.925-9.9a1.361 1.361 0 00-1.125-1.681L15 5.625l-6.175.912A1.375 1.375 0 007.7 8.22l1.344 5.375a.625.625 0 01-1.213.3l-1.344-5.37a2.65 2.65 0 01.388-2.081 2.619 2.619 0 011.769-1.131l5.731-.85V1.25H11.25a.625.625 0 110-1.25h7.5a.625.625 0 110 1.25h-3.125v3.213l5.731.85a2.619 2.619 0 011.769 1.13 2.65 2.65 0 01.363 2.088L22.143 13.9a.625.625 0 11-1.213-.3l1.37-5.375z" fill="#0084FF"/></svg>