<svg width="36" height="30" fill="none" xmlns="http://www.w3.org/2000/svg"><path d="M35.573 0H4.518v3.119H0v21.094h4.98V30l5.799-5.787h20.265v-3.118h4.53V0zm-5.668 23.063h-19.6l-4.186 4.174v-4.174h-4.98V4.27h28.754v18.794h.012zm4.518-3.118h-3.38V3.119H5.669V1.15h28.755v18.795z" fill="#1E1E1E"/><path d="M10.589 20.134l4.85-2.395 4.707 2.644-.759-5.347 3.973-3.676-5.336-.913-2.265-4.921-2.514 4.79-5.371.629 3.782 3.877-1.067 5.312zm-.26-8.3l3.651-.427 1.708-3.26 1.541 3.343 3.64.628-2.703 2.502.522 3.64-3.214-1.802-3.296 1.625.723-3.605-2.573-2.644z" fill="#1E1E1E"/></svg>