<svg width="29" height="30" fill="none" xmlns="http://www.w3.org/2000/svg"><path fill-rule="evenodd" clip-rule="evenodd" d="M14.787 3.377c0 .36-.295.656-.656.656a.658.658 0 01-.656-.656V.656c0-.36.296-.656.656-.656.36 0 .656.295.656.656v2.721zm6.95 3.836a.647.647 0 00.46-.197l1.934-1.934a.634.634 0 000-.918.634.634 0 00-.918 0L21.28 6.098a.634.634 0 000 .918.647.647 0 00.459.197zm-7.606-.492c4.099 0 7.443 3.345 7.443 7.443 0 .59-.066 1.18-.23 1.77-.193.935-.545 1.521-1.024 2.32l-.025.041c-.061.123-.135.245-.214.376-.048.079-.097.16-.146.247h-.001c-.164.263-.328.525-.459.754-.655 1.05-1.049 1.705-1.049 2.984v3.082c0 .754-.557 1.41-1.311 1.54C16.82 28.952 15.803 30 14.13 30s-2.656-1.05-2.983-2.721c-.755-.131-1.312-.754-1.312-1.541v-3.082c0-1.253-.378-1.877-1.01-2.92l-.04-.064c-.1-.14-.187-.293-.278-.45a9.695 9.695 0 00-.18-.304l-.146-.247a5.145 5.145 0 01-.215-.376l-.025-.042c-.479-.798-.83-1.384-1.024-2.319a6.565 6.565 0 01-.23-1.77c0-4.098 3.345-7.443 7.443-7.443zm-2.95 16.722h5.934v-.755c0-.086.009-.163.018-.236.007-.066.015-.128.015-.19h-6c.032.131.032.262.032.426v.755zm-.033 2.327c0 .132.098.263.262.263h5.442c.164 0 .296-.131.263-.263v-1.016h-5.967v1.016zm1.344 1.574c.36 1.377 1.278 1.377 1.64 1.377.36 0 1.31 0 1.671-1.377h-3.311zm6.688-9.705c.46-.754.722-1.245.886-1.967.13-.524.196-1.016.262-1.508 0-3.377-2.754-6.131-6.131-6.131-3.377 0-6.131 2.754-6.131 6.13 0 .493.065.985.196 1.476.164.755.427 1.213.886 2 .098.164.23.394.36.623.081.163.175.313.266.458.056.089.11.176.16.264.427.655.755 1.245.984 1.934h6.492c.222-.665.566-1.24.944-1.869l.04-.065a5.65 5.65 0 00.213-.36c.066-.116.136-.239.213-.362l.114-.204c.08-.147.156-.283.246-.419zm5.738-4.13h2.721c.361 0 .656.294.656.655 0 .36-.295.656-.656.656h-2.721a.658.658 0 01-.656-.656c0-.36.295-.656.656-.656zM6.066 7.015a.647.647 0 00.459.197.647.647 0 00.459-.197.634.634 0 000-.918L5.049 4.164a.634.634 0 00-.918 0 .634.634 0 000 .918l1.935 1.934zm-5.41 6.492h2.721c.36 0 .656.295.656.656 0 .36-.295.656-.656.656H.656A.658.658 0 010 14.164c0-.36.295-.656.656-.656zm5.41 7.803L4.13 23.246a.634.634 0 000 .918.648.648 0 00.46.197.647.647 0 00.458-.197l1.935-1.934a.634.634 0 000-.919c-.263-.262-.689-.262-.918 0zm15.213 0a.634.634 0 01.918 0l1.934 1.935a.634.634 0 010 .918.648.648 0 01-.459.197.648.648 0 01-.459-.197L21.28 22.23a.634.634 0 010-.919z" fill="#000"/></svg>