<svg width="32" height="25" fill="none" xmlns="http://www.w3.org/2000/svg"><path fill-rule="evenodd" clip-rule="evenodd" d="M5.395 5.286C5.895 2.849 8.065 1 10.643 1c2.58 0 4.749 1.849 5.249 4.286h14.021c1.45-.02 1.45 2.163 0 2.143H15.892c-.5 2.437-2.67 4.285-5.248 4.285-2.58 0-4.749-1.848-5.25-4.285H2.087A1.074 1.074 0 011 6.368a1.07 1.07 0 011.086-1.082h3.309zm8.463 1.071a3.198 3.198 0 00-3.215-3.214A3.198 3.198 0 007.43 6.357a3.198 3.198 0 003.214 3.214 3.198 3.198 0 003.215-3.214zm2.252 11.786c.5-2.437 2.669-4.286 5.248-4.286 2.58 0 4.748 1.849 5.249 4.286h3.306c1.45-.02 1.45 2.163 0 2.143h-3.306c-.5 2.437-2.67 4.285-5.249 4.285-2.579 0-4.748-1.848-5.248-4.285H2.086a1.07 1.07 0 110-2.143H16.11zm8.463 1.071A3.198 3.198 0 0021.358 16a3.198 3.198 0 00-3.214 3.214 3.198 3.198 0 003.214 3.215 3.198 3.198 0 003.215-3.215z" fill="#000"/><path d="M5.395 5.286v.25h.204l.04-.2-.244-.05zm10.497 0l-.245.05.041.2h.204v-.25zm14.021 0v.25h.004l-.004-.25zm0 2.143l.004-.25h-.004v.25zm-14.021 0v-.25h-.204l-.04.2.244.05zm-10.497 0l.245-.05-.041-.2h-.204v.25zm-3.309 0v-.25h-.003l.003.25zM1 6.368l-.25.003v.001L1 6.368zm1.086-1.082l-.003.25h.003v-.25zM16.11 18.143v.25h.204l.04-.2-.244-.05zm10.497 0l-.245.05.04.2h.205v-.25zm3.306 0v.25h.004l-.004-.25zm0 2.143l.004-.25h-.004v.25zm-3.306 0v-.25h-.204l-.041.2.245.05zm-10.497 0l.245-.05-.041-.2h-.204v.25zm-14.024 0v-.25h-.003l.003.25zM1 19.225l-.25.004.25-.004zm1.086-1.082l-.003.25h.003v-.25zM10.643.75c-2.7 0-4.97 1.935-5.493 4.485l.49.101c.477-2.324 2.546-4.086 5.003-4.086v-.5zm5.494 4.485C15.613 2.685 13.344.75 10.643.75v.5c2.458 0 4.527 1.762 5.004 4.086l.49-.1zm13.776-.2H15.892v.5h14.021v-.5zM29.91 7.68c.43.006.772-.154 1.004-.412.228-.254.336-.586.336-.91 0-.324-.108-.656-.336-.91-.232-.257-.574-.417-1.004-.411l.007.5c.294-.004.495.1.625.246a.86.86 0 01.208.575.862.862 0 01-.208.575c-.13.145-.331.25-.625.247l-.007.5zm-14.018 0h14.021v-.5H15.892v.5zm-5.248 4.285c2.7 0 4.97-1.935 5.493-4.485l-.49-.1c-.477 2.323-2.546 4.085-5.004 4.085v.5zM5.15 7.48c.524 2.55 2.793 4.485 5.493 4.485v-.5c-2.457 0-4.526-1.762-5.003-4.086l-.49.1zm-3.064.2h3.309v-.5H2.086v.5zM.75 6.372c.013.734.61 1.317 1.34 1.307l-.007-.5a.824.824 0 01-.833-.816l-.5.01zm1.34-1.336A1.32 1.32 0 00.75 6.37l.5-.007a.82.82 0 01.833-.828l.007-.5zm3.305 0H2.086v.5h3.309v-.5zm5.248-1.643a2.948 2.948 0 012.965 2.964h.5a3.448 3.448 0 00-3.465-3.464v.5zM7.68 6.357a2.948 2.948 0 012.964-2.964v-.5A3.448 3.448 0 007.18 6.357h.5zm2.964 2.964A2.948 2.948 0 017.68 6.357h-.5a3.448 3.448 0 003.464 3.464v-.5zm2.965-2.964a2.948 2.948 0 01-2.965 2.964v.5a3.448 3.448 0 003.465-3.464h-.5zm7.75 7.25c-2.7 0-4.97 1.935-5.493 4.486l.49.1c.476-2.324 2.546-4.086 5.003-4.086v-.5zm5.494 4.486c-.524-2.55-2.793-4.486-5.494-4.486v.5c2.458 0 4.527 1.762 5.004 4.086l.49-.1zm3.061-.2h-3.306v.5h3.306v-.5zm-.003 2.643c.43.006.772-.154 1.004-.412a1.36 1.36 0 00.336-.91 1.36 1.36 0 00-.336-.91c-.232-.257-.574-.417-1.004-.411l.007.5c.294-.004.495.101.625.246a.86.86 0 01.208.575.862.862 0 01-.208.576c-.13.145-.331.25-.625.246l-.007.5zm-3.303 0h3.306v-.5h-3.306v.5zm-5.249 4.285c2.701 0 4.97-1.935 5.494-4.485l-.49-.1c-.477 2.323-2.546 4.085-5.004 4.085v.5zm-5.493-4.485c.523 2.55 2.792 4.485 5.493 4.485v-.5c-2.457 0-4.527-1.762-5.003-4.086l-.49.101zm-13.779.2H16.11v-.5H2.086v.5zM.75 19.229c.013.734.61 1.317 1.34 1.307l-.007-.5a.824.824 0 01-.833-.816l-.5.01zm1.34-1.336a1.32 1.32 0 00-1.34 1.336l.5-.008a.82.82 0 01.833-.828l.007-.5zm14.02 0H2.086v.5H16.11v-.5zm5.248-1.643a2.948 2.948 0 012.965 2.964h.5a3.448 3.448 0 00-3.465-3.464v.5zm-2.964 2.964a2.948 2.948 0 012.964-2.964v-.5a3.448 3.448 0 00-3.464 3.464h.5zm2.964 2.965a2.948 2.948 0 01-2.964-2.965h-.5a3.448 3.448 0 003.464 3.465v-.5zm2.965-2.965a2.948 2.948 0 01-2.965 2.965v.5a3.448 3.448 0 003.465-3.465h-.5z" fill="#fff"/></svg>