<svg width="30" height="26" viewBox="0 0 30 26" fill="none" xmlns="http://www.w3.org/2000/svg">
<path fill-rule="evenodd" clip-rule="evenodd" d="M10.9091 2.72727C10.9091 3.13636 10.6364 3.40909 10.2273 3.40909C9.8182 3.40909 9.54547 3.13636 9.54547 2.72727V2.04545C9.54547 0.886364 10.4318 0 11.5909 0H18.4091C19.5682 0 20.4546 0.886364 20.4546 2.04545V2.72727C20.4546 3.13636 20.1818 3.40909 19.7727 3.40909C19.3637 3.40909 19.0909 3.13636 19.0909 2.72727V2.04545C19.0909 1.63636 18.8182 1.36364 18.4091 1.36364H11.5909C11.1818 1.36364 10.9091 1.63636 10.9091 2.04545V2.72727ZM27.9545 4.77273H2.04545C0.886364 4.77273 0 5.65909 0 6.81818V11.1818C0 12.1364 0.681818 12.9545 1.56818 13.1591L12.2727 15.5455V17.7273C12.2727 18.1364 12.5455 18.4091 12.9545 18.4091H17.0455C17.4545 18.4091 17.7273 18.1364 17.7273 17.7273V15.5455L28.4318 13.1591C29.3182 12.9545 30 12.1364 30 11.1818V6.81818C30 5.65909 29.1136 4.77273 27.9545 4.77273ZM16.3636 17.0455H13.6364V14.3182H16.3636V17.0455ZM28.6364 11.1818C28.6364 11.5227 28.4318 11.7955 28.0909 11.8636L17.7273 14.1818V13.6364C17.7273 13.2273 17.4545 12.9545 17.0455 12.9545H12.9545C12.5455 12.9545 12.2727 13.2273 12.2727 13.6364V14.1818L1.90909 11.8636C1.56818 11.7955 1.36364 11.5227 1.36364 11.1818V6.81818C1.36364 6.40909 1.63636 6.13636 2.04545 6.13636H27.9545C28.3636 6.13636 28.6364 6.40909 28.6364 6.81818V11.1818ZM28.6364 14.3182C28.2273 14.3182 27.9546 14.5909 27.9546 15V23.8636C27.9546 24.2727 27.6818 24.5455 27.2727 24.5455H2.72728C2.31819 24.5455 2.04546 24.2727 2.04546 23.8636V15C2.04546 14.5909 1.77273 14.3182 1.36364 14.3182C0.954552 14.3182 0.681824 14.5909 0.681824 15V23.8636C0.681824 25.0227 1.56819 25.9091 2.72728 25.9091H27.2727C28.4318 25.9091 29.3182 25.0227 29.3182 23.8636V15C29.3182 14.5909 29.0455 14.3182 28.6364 14.3182Z" fill="black"/>
</svg>
