<svg width="30" height="30" viewBox="0 0 30 30" fill="none" xmlns="http://www.w3.org/2000/svg">
<path d="M25.625 21.25H4.375C3.21468 21.25 2.10188 21.7109 1.28141 22.5314C0.460936 23.3519 0 24.4647 0 25.625C0 26.7853 0.460936 27.8981 1.28141 28.7186C2.10188 29.5391 3.21468 30 4.375 30H25.625C26.7853 30 27.8981 29.5391 28.7186 28.7186C29.5391 27.8981 30 26.7853 30 25.625C30 24.4647 29.5391 23.3519 28.7186 22.5314C27.8981 21.7109 26.7853 21.25 25.625 21.25ZM25.625 28.75H4.375C3.5462 28.75 2.75134 28.4208 2.16529 27.8347C1.57924 27.2487 1.25 26.4538 1.25 25.625C1.25 24.7962 1.57924 24.0013 2.16529 23.4153C2.75134 22.8292 3.5462 22.5 4.375 22.5H25.625C26.4538 22.5 27.2487 22.8292 27.8347 23.4153C28.4208 24.0013 28.75 24.7962 28.75 25.625C28.75 26.4538 28.4208 27.2487 27.8347 27.8347C27.2487 28.4208 26.4538 28.75 25.625 28.75ZM5 23.75C4.62916 23.75 4.26665 23.86 3.95831 24.066C3.64996 24.272 3.40964 24.5649 3.26773 24.9075C3.12581 25.2501 3.08868 25.6271 3.16103 25.9908C3.23338 26.3545 3.41195 26.6886 3.67417 26.9508C3.9364 27.213 4.27049 27.3916 4.63421 27.464C4.99792 27.5363 5.37492 27.4992 5.71753 27.3573C6.06014 27.2154 6.35298 26.975 6.55901 26.6667C6.76503 26.3584 6.875 25.9958 6.875 25.625C6.875 25.1277 6.67746 24.6508 6.32583 24.2992C5.97419 23.9475 5.49728 23.75 5 23.75ZM5 26.25C4.87639 26.25 4.75555 26.2133 4.65277 26.1447C4.54999 26.076 4.46988 25.9784 4.42257 25.8642C4.37527 25.75 4.36289 25.6243 4.38701 25.5031C4.41112 25.3818 4.47065 25.2705 4.55806 25.1831C4.64547 25.0956 4.75683 25.0361 4.87807 25.012C4.99931 24.9879 5.12497 25.0003 5.23918 25.0476C5.35338 25.0949 5.45099 25.175 5.51967 25.2778C5.58834 25.3806 5.625 25.5014 5.625 25.625C5.625 25.7908 5.55915 25.9497 5.44194 26.0669C5.32473 26.1842 5.16576 26.25 5 26.25ZM10 23.75C9.62916 23.75 9.26665 23.86 8.95831 24.066C8.64996 24.272 8.40964 24.5649 8.26773 24.9075C8.12581 25.2501 8.08868 25.6271 8.16103 25.9908C8.23337 26.3545 8.41195 26.6886 8.67417 26.9508C8.9364 27.213 9.27049 27.3916 9.63421 27.464C9.99792 27.5363 10.3749 27.4992 10.7175 27.3573C11.0601 27.2154 11.353 26.975 11.559 26.6667C11.765 26.3584 11.875 25.9958 11.875 25.625C11.875 25.1277 11.6775 24.6508 11.3258 24.2992C10.9742 23.9475 10.4973 23.75 10 23.75ZM10 26.25C9.87639 26.25 9.75555 26.2133 9.65277 26.1447C9.54999 26.076 9.46988 25.9784 9.42257 25.8642C9.37527 25.75 9.36289 25.6243 9.38701 25.5031C9.41113 25.3818 9.47065 25.2705 9.55806 25.1831C9.64547 25.0956 9.75683 25.0361 9.87807 25.012C9.99931 24.9879 10.125 25.0003 10.2392 25.0476C10.3534 25.0949 10.451 25.175 10.5197 25.2778C10.5883 25.3806 10.625 25.5014 10.625 25.625C10.625 25.7908 10.5592 25.9497 10.4419 26.0669C10.3247 26.1842 10.1658 26.25 10 26.25ZM15 23.75C14.6292 23.75 14.2666 23.86 13.9583 24.066C13.65 24.272 13.4096 24.5649 13.2677 24.9075C13.1258 25.2501 13.0887 25.6271 13.161 25.9908C13.2334 26.3545 13.412 26.6886 13.6742 26.9508C13.9364 27.213 14.2705 27.3916 14.6342 27.464C14.9979 27.5363 15.3749 27.4992 15.7175 27.3573C16.0601 27.2154 16.353 26.975 16.559 26.6667C16.765 26.3584 16.875 25.9958 16.875 25.625C16.875 25.1277 16.6775 24.6508 16.3258 24.2992C15.9742 23.9475 15.4973 23.75 15 23.75ZM15 26.25C14.8764 26.25 14.7555 26.2133 14.6528 26.1447C14.55 26.076 14.4699 25.9784 14.4226 25.8642C14.3753 25.75 14.3629 25.6243 14.387 25.5031C14.4111 25.3818 14.4706 25.2705 14.5581 25.1831C14.6455 25.0956 14.7568 25.0361 14.8781 25.012C14.9993 24.9879 15.125 25.0003 15.2392 25.0476C15.3534 25.0949 15.451 25.175 15.5197 25.2778C15.5883 25.3806 15.625 25.5014 15.625 25.625C15.625 25.7908 15.5592 25.9497 15.4419 26.0669C15.3247 26.1842 15.1658 26.25 15 26.25ZM20 23.75C19.6292 23.75 19.2666 23.86 18.9583 24.066C18.65 24.272 18.4096 24.5649 18.2677 24.9075C18.1258 25.2501 18.0887 25.6271 18.161 25.9908C18.2334 26.3545 18.412 26.6886 18.6742 26.9508C18.9364 27.213 19.2705 27.3916 19.6342 27.464C19.9979 27.5363 20.3749 27.4992 20.7175 27.3573C21.0601 27.2154 21.353 26.975 21.559 26.6667C21.765 26.3584 21.875 25.9958 21.875 25.625C21.875 25.1277 21.6775 24.6508 21.3258 24.2992C20.9742 23.9475 20.4973 23.75 20 23.75ZM20 26.25C19.8764 26.25 19.7555 26.2133 19.6528 26.1447C19.55 26.076 19.4699 25.9784 19.4226 25.8642C19.3753 25.75 19.3629 25.6243 19.387 25.5031C19.4111 25.3818 19.4706 25.2705 19.5581 25.1831C19.6455 25.0956 19.7568 25.0361 19.8781 25.012C19.9993 24.9879 20.125 25.0003 20.2392 25.0476C20.3534 25.0949 20.451 25.175 20.5197 25.2778C20.5883 25.3806 20.625 25.5014 20.625 25.625C20.625 25.7908 20.5592 25.9497 20.4419 26.0669C20.3247 26.1842 20.1658 26.25 20 26.25ZM25 23.75C24.6292 23.75 24.2666 23.86 23.9583 24.066C23.65 24.272 23.4096 24.5649 23.2677 24.9075C23.1258 25.2501 23.0887 25.6271 23.161 25.9908C23.2334 26.3545 23.412 26.6886 23.6742 26.9508C23.9364 27.213 24.2705 27.3916 24.6342 27.464C24.9979 27.5363 25.3749 27.4992 25.7175 27.3573C26.0601 27.2154 26.353 26.975 26.559 26.6667C26.765 26.3584 26.875 25.9958 26.875 25.625C26.875 25.1277 26.6775 24.6508 26.3258 24.2992C25.9742 23.9475 25.4973 23.75 25 23.75ZM25 26.25C24.8764 26.25 24.7556 26.2133 24.6528 26.1447C24.55 26.076 24.4699 25.9784 24.4226 25.8642C24.3753 25.75 24.3629 25.6243 24.387 25.5031C24.4111 25.3818 24.4706 25.2705 24.5581 25.1831C24.6455 25.0956 24.7568 25.0361 24.8781 25.012C24.9993 24.9879 25.125 25.0003 25.2392 25.0476C25.3534 25.0949 25.451 25.175 25.5197 25.2778C25.5883 25.3806 25.625 25.5014 25.625 25.625C25.625 25.7908 25.5592 25.9497 25.4419 26.0669C25.3247 26.1842 25.1658 26.25 25 26.25ZM10 8.125C9.83424 8.125 9.67527 8.19085 9.55806 8.30806C9.44085 8.42527 9.375 8.58424 9.375 8.75V18.75C9.375 18.9158 9.44085 19.0747 9.55806 19.1919C9.67527 19.3092 9.83424 19.375 10 19.375H20C20.1658 19.375 20.3247 19.3092 20.4419 19.1919C20.5592 19.0747 20.625 18.9158 20.625 18.75V8.75C20.625 8.58424 20.5592 8.42527 20.4419 8.30806C20.3247 8.19085 20.1658 8.125 20 8.125H10ZM19.375 18.125H10.625V9.375H19.375V18.125ZM22.3 8.225C22.3466 8.04011 22.3539 7.8475 22.3213 7.65963C22.2888 7.47175 22.2172 7.29279 22.1112 7.13433C22.0051 6.97586 21.867 6.84142 21.7058 6.73969C21.5445 6.63796 21.3637 6.57121 21.175 6.54375L15 5.625L8.825 6.5375C8.63717 6.56676 8.45744 6.63464 8.29717 6.73687C8.1369 6.8391 7.99957 6.97346 7.89385 7.13145C7.78813 7.28944 7.71632 7.46763 7.68296 7.65478C7.64959 7.84193 7.6554 8.03396 7.7 8.21875L9.04375 13.5938C9.07645 13.752 9.04661 13.9167 8.96048 14.0534C8.87436 14.1901 8.73864 14.2882 8.5818 14.327C8.42496 14.3658 8.25918 14.3423 8.11925 14.2616C7.97932 14.1808 7.8761 14.049 7.83125 13.8937L6.4875 8.525C6.40559 8.17008 6.39772 7.80209 6.46439 7.444C6.53106 7.08591 6.67084 6.7454 6.875 6.44375C7.07583 6.14337 7.33664 5.88779 7.64104 5.69311C7.94544 5.49842 8.28683 5.36883 8.64375 5.3125L14.375 4.4625V1.25H11.25C11.0842 1.25 10.9253 1.18415 10.8081 1.06694C10.6908 0.949732 10.625 0.79076 10.625 0.625C10.625 0.45924 10.6908 0.300269 10.8081 0.183058C10.9253 0.065848 11.0842 0 11.25 0L18.75 0C18.9158 0 19.0747 0.065848 19.1919 0.183058C19.3092 0.300269 19.375 0.45924 19.375 0.625C19.375 0.79076 19.3092 0.949732 19.1919 1.06694C19.0747 1.18415 18.9158 1.25 18.75 1.25H15.625V4.4625L21.3562 5.3125C21.7132 5.36883 22.0546 5.49842 22.359 5.69311C22.6634 5.88779 22.9242 6.14337 23.125 6.44375C23.3258 6.74805 23.4616 7.09051 23.524 7.4497C23.5863 7.80888 23.5739 8.17708 23.4875 8.53125L22.1437 13.9C22.1267 13.9824 22.0932 14.0605 22.0453 14.1296C21.9974 14.1987 21.936 14.2575 21.8649 14.3023C21.7937 14.3471 21.7142 14.3771 21.6312 14.3905C21.5481 14.4039 21.4632 14.4004 21.3816 14.3802C21.2999 14.36 21.2232 14.3235 21.156 14.273C21.0888 14.2224 21.0324 14.1588 20.9904 14.0859C20.9483 14.0131 20.9214 13.9325 20.9113 13.849C20.9011 13.7655 20.9079 13.6808 20.9313 13.6L22.3 8.225Z" fill="#0084FF"/>
</svg>
