<svg width="30" height="30" viewBox="0 0 30 30" fill="none" xmlns="http://www.w3.org/2000/svg">
<path d="M25.9144 3.62257C25.7452 1.63418 24.0754 0.0671268 22.0438 0.0671268C20.0121 0.0671268 18.3423 1.63418 18.1732 3.62257H14.9249L7.67976 0L0 3.83988V30L7.67976 26.1601L14.6564 29.6484H29.5813V3.62257H25.9144ZM22.0438 1.20487C23.56 1.20487 24.7933 2.43856 24.7933 3.95441C24.7933 4.99166 23.2399 6.91785 22.0438 8.1341C20.8476 6.91861 19.2942 4.99317 19.2942 3.95441C19.2942 2.43856 20.5275 1.20487 22.0438 1.20487ZM8.24863 1.55681L14.2218 4.54301V28.1591L8.24863 25.1726V1.55681ZM1.13774 4.54339L7.11089 1.55681V25.1729L1.13774 28.1591V4.54339ZM28.4436 28.5107H15.3595V4.76032H18.2949C18.9051 6.69637 21.3395 9.04885 21.6524 9.34504L22.0438 9.71594L22.4351 9.34504C22.7476 9.04885 25.182 6.69637 25.7926 4.76032H28.4436V28.5107Z" fill="#0084FF"/>
<path d="M24.6742 12.0851C24.452 11.8629 24.0921 11.8629 23.8698 12.0851L21.9019 14.0531L19.934 12.0851C19.7118 11.8629 19.3519 11.8629 19.1296 12.0851C18.9074 12.3074 18.9074 12.6677 19.1296 12.8895L21.0975 14.8574L19.1296 16.8254C18.9074 17.0476 18.9074 17.4075 19.1296 17.6297C19.2408 17.7409 19.3864 17.7962 19.532 17.7962C19.6776 17.7962 19.8233 17.7409 19.9344 17.6297L21.9023 15.6618L23.8702 17.6297C23.9813 17.7409 24.127 17.7962 24.2726 17.7962C24.4182 17.7962 24.5639 17.7409 24.675 17.6297C24.8972 17.4075 24.8972 17.0476 24.675 16.8254L22.7071 14.8574L24.675 12.8895C24.8961 12.668 24.8961 12.3074 24.6742 12.0851Z" fill="#0084FF"/>
<path d="M23.7978 4.19152C23.7978 3.22444 23.0109 2.4375 22.0438 2.4375C21.0767 2.4375 20.2897 3.22444 20.2897 4.19152C20.2897 5.15898 21.0767 5.94554 22.0438 5.94554C23.0109 5.94554 23.7978 5.15898 23.7978 4.19152ZM21.4275 4.19152C21.4275 3.85171 21.704 3.57524 22.0438 3.57524C22.3836 3.57524 22.66 3.85171 22.66 4.19152C22.66 4.53133 22.3836 4.8078 22.0438 4.8078C21.704 4.8078 21.4275 4.53133 21.4275 4.19152Z" fill="#0084FF"/>
</svg>
