<svg width="31" height="30" viewBox="0 0 31 30" fill="none" xmlns="http://www.w3.org/2000/svg">
<path d="M29.7566 28.4002L20.3867 19.0412C22.1054 17.0236 23.149 14.4143 23.149 11.5635C23.149 5.18675 17.9567 0 11.5745 0C5.19225 0 0 5.18725 0 11.5635C0 17.9382 5.19225 23.1255 11.5745 23.1255C14.4287 23.1255 17.0406 22.0829 19.0607 20.3657L28.4312 29.7256C28.6141 29.9085 28.854 30 29.0939 30C29.3338 30 29.5732 29.9085 29.7566 29.7256C30.1224 29.3593 30.1224 28.7665 29.7566 28.4002ZM11.5745 21.2513C6.2253 21.2513 1.87419 16.9062 1.87419 11.5635C1.87419 6.22081 6.2258 1.87419 11.5745 1.87419C16.9232 1.87419 21.2748 6.2213 21.2748 11.5635C21.2748 16.9057 16.9237 21.2513 11.5745 21.2513Z" fill="black"/>
</svg>
