<svg width="30" height="28" viewBox="0 0 30 28" fill="none" xmlns="http://www.w3.org/2000/svg">
<path d="M0.666667 0C0.298467 0 0 0.298467 0 0.666667V26.6667C0 27.0349 0.298467 27.3334 0.666667 27.3334H29.3333C29.7015 27.3334 30 27.0349 30 26.6667C30 26.2985 29.7015 26 29.3333 26H1.33333V0.666667C1.33333 0.298467 1.03487 0 0.666667 0ZM25 3.66671C23.7192 3.66671 22.6667 4.71927 22.6667 6.00004C22.6667 6.52644 22.8475 7.0038 23.1458 7.39587L19.1875 13.0521C19.0199 13.0134 18.8454 13 18.6667 13C18.016 13 17.4248 13.2627 17 13.698L14.2083 12.073C14.2883 11.8385 14.3333 11.5935 14.3333 11.3334C14.3333 10.0526 13.2808 9.00004 12 9.00004C10.7192 9.00004 9.66667 10.0526 9.66667 11.3334C9.66667 11.8598 9.84747 12.3371 10.1458 12.7292L6.1875 18.3855C6.0199 18.3467 5.8454 18.3334 5.66667 18.3334C4.3859 18.3334 3.33333 19.3859 3.33333 20.6667C3.33333 21.9475 4.3859 23 5.66667 23C6.94743 23 8 21.9475 8 20.6667C8 20.0418 7.74917 19.4622 7.34373 19.0417L11.2083 13.5209C11.4563 13.6116 11.7221 13.6667 12 13.6667C12.5416 13.6667 13.0398 13.4704 13.4375 13.1563L16.3854 14.875C16.3554 15.0233 16.3333 15.1768 16.3333 15.3334C16.3333 16.6141 17.3859 17.6667 18.6667 17.6667C19.9474 17.6667 21 16.6141 21 15.3334C21 14.7085 20.7492 14.1289 20.3437 13.7084L24.2083 8.18754C24.4563 8.27822 24.7221 8.33337 25 8.33337C26.2808 8.33337 27.3333 7.28081 27.3333 6.00004C27.3333 4.71927 26.2808 3.66671 25 3.66671ZM25 5.00004C25.5602 5.00004 26 5.43986 26 6.00004C26 6.56022 25.5602 7.00004 25 7.00004C24.4398 7.00004 24 6.56022 24 6.00004C24 5.43986 24.4398 5.00004 25 5.00004ZM12 10.3334C12.5602 10.3334 13 10.7732 13 11.3334C13 11.8936 12.5602 12.3334 12 12.3334C11.4398 12.3334 11 11.8936 11 11.3334C11 10.7732 11.4398 10.3334 12 10.3334ZM18.6667 14.3334C19.2268 14.3334 19.6667 14.7732 19.6667 15.3334C19.6667 15.8935 19.2268 16.3334 18.6667 16.3334C18.1065 16.3334 17.6667 15.8935 17.6667 15.3334C17.6667 14.7732 18.1065 14.3334 18.6667 14.3334ZM5.66667 19.6667C6.22683 19.6667 6.66667 20.1065 6.66667 20.6667C6.66667 21.2269 6.22683 21.6667 5.66667 21.6667C5.1065 21.6667 4.66667 21.2269 4.66667 20.6667C4.66667 20.1065 5.1065 19.6667 5.66667 19.6667Z" fill="#1E1E1E"/>
</svg>
