<svg width="36" height="30" viewBox="0 0 36 30" fill="none" xmlns="http://www.w3.org/2000/svg">
<path d="M35.5731 0H4.51779V3.11858H0V24.2134H4.98024V30L10.7787 24.2134H31.0435V21.0949H35.5731V0ZM29.9051 23.0632H10.3043L6.11858 27.2372V23.0632H1.13834V4.26877H29.8933V23.0632H29.9051ZM34.4229 19.9447H31.0435V3.11858H5.66798V1.1502H34.4229V19.9447Z" fill="#1E1E1E"/>
<path d="M10.5889 20.1343L15.4387 17.7391L20.1462 20.3833L19.3874 15.0355L23.3597 11.3596L18.0237 10.4466L15.7589 5.52563L13.2451 10.3161L7.87352 10.9446L11.6561 14.8221L10.5889 20.1343ZM10.3281 11.8339L13.9802 11.4071L15.6878 8.14619L17.2293 11.4901L20.8696 12.1185L18.166 14.6205L18.6878 18.2608L15.4743 16.4584L12.1779 18.0829L12.9012 14.4782L10.3281 11.8339Z" fill="#1E1E1E"/>
</svg>
