<svg width="32" height="32" viewBox="0 0 32 32" fill="none" xmlns="http://www.w3.org/2000/svg">
<path d="M30.7566 29.4002L21.3867 20.0412C23.1054 18.0236 24.149 15.4143 24.149 12.5635C24.149 6.18675 18.9567 1 12.5745 1C6.19225 1 1 6.18725 1 12.5635C1 18.9382 6.19225 24.1255 12.5745 24.1255C15.4287 24.1255 18.0406 23.0829 20.0607 21.3657L29.4312 30.7256C29.6141 30.9085 29.854 31 30.0939 31C30.3338 31 30.5732 30.9085 30.7566 30.7256C31.1224 30.3593 31.1224 29.7665 30.7566 29.4002ZM12.5745 22.2513C7.2253 22.2513 2.87419 17.9062 2.87419 12.5635C2.87419 7.22081 7.2258 2.87419 12.5745 2.87419C17.9232 2.87419 22.2748 7.2213 22.2748 12.5635C22.2748 17.9057 17.9237 22.2513 12.5745 22.2513Z" fill="#0084FF" stroke="white" stroke-width="0.5"/>
</svg>
