<svg width="30" height="30" viewBox="0 0 30 30" fill="none" xmlns="http://www.w3.org/2000/svg">
<path d="M15.0544 29.9759C12.1829 29.9865 9.36866 29.1725 6.94611 27.6308C4.52355 26.0891 2.59447 23.8843 1.38803 21.2785C0.181589 18.6727 -0.251495 15.7754 0.140225 12.9307C0.531945 10.086 1.732 7.41354 3.59784 5.23079C5.70761 2.78598 8.54611 1.08254 11.696 0.370921C14.8459 -0.340699 18.141 -0.0229574 21.0969 1.27743C21.1859 1.31339 21.2667 1.3669 21.3345 1.43478C21.4023 1.50265 21.4558 1.5835 21.4917 1.67249C21.5275 1.76148 21.5451 1.85679 21.5434 1.95273C21.5416 2.04866 21.5205 2.14326 21.4814 2.23088C21.4423 2.31849 21.3859 2.39732 21.3156 2.46267C21.2454 2.52801 21.1627 2.57853 21.0725 2.6112C20.9822 2.64387 20.8864 2.65803 20.7905 2.65283C20.6947 2.64763 20.6009 2.62318 20.5148 2.58093C17.8422 1.3935 14.8576 1.10119 12.0054 1.74754C9.15324 2.39388 6.58617 3.94429 4.68658 6.16784C2.78699 8.39139 1.65652 11.1691 1.46355 14.0872C1.27058 17.0053 2.02544 19.9077 3.61569 22.362C5.2087 24.8178 7.55303 26.6926 10.2989 27.7068C13.0447 28.721 16.0449 28.8202 18.8518 27.9895C21.6586 27.1589 24.1216 25.4429 25.8733 23.0978C27.625 20.7526 28.5715 17.9039 28.5715 14.9767V13.6696C28.5715 13.4802 28.6468 13.2985 28.7807 13.1646C28.9146 13.0306 29.0963 12.9554 29.2858 12.9554C29.4752 12.9554 29.6569 13.0306 29.7908 13.1646C29.9247 13.2985 30 13.4802 30 13.6696V14.9767C29.9858 18.2088 28.934 21.3508 26.9993 23.94C25.0647 26.5291 22.3497 28.4284 19.2541 29.3581C17.8913 29.7652 16.4767 29.9733 15.0544 29.9759Z" fill="#1E1E1E"/>
<path d="M15.0008 18.5694C14.8122 18.5695 14.6312 18.4951 14.4973 18.3622L10.2118 14.0767C10.0777 13.9427 10.0025 13.7609 10.0025 13.5714C10.0025 13.3819 10.0777 13.2001 10.2118 13.0661C10.3458 12.9321 10.5276 12.8568 10.7171 12.8568C10.9066 12.8568 11.0884 12.9321 11.2224 13.0661L15.0008 16.8445L28.7786 3.05233C28.845 2.98597 28.9238 2.93333 29.0105 2.89742C29.0972 2.8615 29.1901 2.84302 29.284 2.84302C29.3778 2.84302 29.4707 2.8615 29.5575 2.89742C29.6442 2.93333 29.7229 2.98597 29.7893 3.05233C29.8557 3.11869 29.9083 3.19747 29.9442 3.28418C29.9801 3.37088 29.9986 3.46381 29.9986 3.55766C29.9986 3.65151 29.9801 3.74444 29.9442 3.83115C29.9083 3.91785 29.8557 3.99663 29.7893 4.06299L15.5043 18.3479C15.4376 18.4141 15.3585 18.4665 15.2714 18.5021C15.1844 18.5376 15.0912 18.5556 14.9972 18.5551L15.0008 18.5694Z" fill="#1E1E1E"/>
</svg>
