<svg width="30" height="30" viewBox="0 0 30 30" fill="none" xmlns="http://www.w3.org/2000/svg">
<path d="M16.5879 11.2421C16.9662 11.2421 17.3253 10.9119 17.3093 10.5208C17.2932 10.1297 16.9919 9.79944 16.5879 9.79944C16.2096 9.79944 15.8506 10.1297 15.8666 10.5208C15.8826 10.9119 16.1808 11.2421 16.5879 11.2421Z" fill="black"/>
<path d="M27.4625 9.65518C27.4753 9.68404 27.5523 9.85716 27.4785 9.69045C27.4978 9.73213 27.5138 9.77701 27.533 9.82189C27.5715 9.91807 27.61 10.0142 27.6485 10.1104C27.7222 10.3028 27.7927 10.4983 27.8568 10.6971C27.9819 11.0754 28.0941 11.4601 28.1871 11.848C28.28 12.2392 28.3602 12.6367 28.4211 13.0342C28.4307 13.092 28.4403 13.1497 28.4467 13.2074C28.4307 13.0407 28.4435 13.1753 28.4467 13.217C28.4596 13.3132 28.4692 13.4093 28.4788 13.5055C28.5012 13.7299 28.5205 13.9543 28.5333 14.1788C28.5718 14.8745 28.5622 15.5733 28.5012 16.2658C28.4884 16.4197 28.4724 16.5736 28.4532 16.7307C28.4499 16.766 28.4435 16.8044 28.4403 16.8397C28.4211 17 28.466 16.6634 28.4435 16.8237C28.4307 16.9102 28.4179 16.9968 28.4051 17.0833C28.357 17.3847 28.2993 17.6861 28.2319 17.9842C28.0941 18.5869 27.921 19.18 27.7062 19.7603C27.6581 19.895 27.6068 20.0264 27.5523 20.1578C27.5298 20.2091 27.4273 20.4336 27.5266 20.222C27.4914 20.2989 27.4593 20.3791 27.424 20.456C27.3022 20.7285 27.174 20.9946 27.0361 21.2575C26.754 21.7929 26.4398 22.3122 26.0936 22.8092C26.0134 22.9246 25.9301 23.0368 25.8467 23.1522C25.805 23.2067 25.7602 23.2612 25.7185 23.3189C25.8371 23.1458 25.757 23.2676 25.7281 23.3061C25.7025 23.3381 25.6768 23.3734 25.6512 23.4055C25.4588 23.6459 25.26 23.8799 25.0517 24.1076C24.6541 24.5436 24.2341 24.9539 23.7853 25.3354C23.6731 25.4316 23.5609 25.5246 23.4455 25.6176C23.3846 25.6656 23.3237 25.7137 23.2627 25.7618C23.2275 25.7907 23.1537 25.8324 23.3076 25.7266C23.2627 25.7586 23.2179 25.7939 23.173 25.8292C22.9357 26.0055 22.6953 26.1754 22.4484 26.3357C21.9483 26.6627 21.4257 26.9608 20.8871 27.2237C20.7525 27.2879 20.6178 27.352 20.4832 27.4129C20.4191 27.4417 20.3549 27.4706 20.2876 27.4994C20.2684 27.5059 20.1369 27.5636 20.2556 27.5123C20.3774 27.461 20.2043 27.5315 20.185 27.5411C19.9061 27.6533 19.6272 27.7591 19.3419 27.8521C18.752 28.0509 18.1525 28.208 17.5433 28.3266C17.3991 28.3554 17.2548 28.3811 17.1137 28.4035C17.04 28.4163 16.9695 28.426 16.8957 28.4356C16.8509 28.442 16.8092 28.4452 16.7643 28.4548C16.9823 28.4163 16.8284 28.4452 16.7803 28.4516C16.4629 28.4901 16.1455 28.5189 15.8282 28.5382C15.1934 28.5734 14.5522 28.5702 13.9174 28.5221C13.7699 28.5125 13.6225 28.4965 13.475 28.4837C13.3949 28.4741 13.3147 28.4644 13.2346 28.4548C13.1993 28.4516 13.1608 28.4452 13.1256 28.442C13.35 28.4612 13.1736 28.4484 13.1223 28.442C12.8114 28.3971 12.5036 28.3426 12.1958 28.2753C11.5963 28.147 11.0064 27.9803 10.4294 27.7784C10.2883 27.7271 10.1472 27.6758 10.0094 27.6213C9.94205 27.5956 9.87794 27.57 9.81061 27.5411C9.78496 27.5315 9.75932 27.5187 9.73046 27.5091C9.65993 27.4802 9.67917 27.4866 9.78496 27.5315C9.75932 27.5219 9.73367 27.5091 9.70802 27.4994C9.43552 27.3808 9.16622 27.2558 8.90012 27.1211C8.36153 26.8454 7.83896 26.5377 7.33563 26.1946C7.22021 26.1145 7.1048 26.0343 6.98938 25.951C6.93168 25.9093 6.87718 25.8676 6.81947 25.8259C6.7842 25.8003 6.75214 25.7747 6.72008 25.749C6.61108 25.6689 6.84832 25.8484 6.73291 25.7586C6.49567 25.5727 6.26484 25.3803 6.03722 25.1816C5.59159 24.7872 5.17162 24.364 4.77729 23.9184C4.68431 23.8126 4.59455 23.7068 4.50478 23.5978C4.45669 23.5369 4.4054 23.4792 4.35731 23.4183C4.33487 23.3894 4.31242 23.3638 4.29319 23.3349C4.28036 23.3157 4.16495 23.1746 4.2451 23.274C4.32525 23.3734 4.23548 23.2612 4.22586 23.2452C4.20342 23.2163 4.18419 23.1907 4.16174 23.1618C4.11686 23.1009 4.06877 23.0368 4.02389 22.9759C3.93412 22.8508 3.84436 22.7226 3.7578 22.5944C3.42758 22.1038 3.12623 21.5909 2.86013 21.0619C2.71907 20.783 2.59725 20.4977 2.4658 20.2123C2.56519 20.4207 2.45939 20.1995 2.44016 20.1482C2.41451 20.0809 2.38886 20.0168 2.36321 19.9495C2.30551 19.802 2.251 19.6545 2.19971 19.507C1.99453 18.9204 1.83103 18.324 1.70599 17.7149C1.64508 17.4136 1.59379 17.1122 1.5489 16.8076C1.52646 16.6473 1.57134 16.984 1.55211 16.8237C1.5489 16.7948 1.5457 16.766 1.54249 16.7371C1.53287 16.6634 1.52646 16.5896 1.51684 16.5159C1.50081 16.3524 1.48478 16.1921 1.47517 16.0286C1.43028 15.3842 1.42708 14.7398 1.46555 14.0954C1.48478 13.7844 1.51684 13.4767 1.55211 13.1657C1.57134 13.0054 1.52646 13.342 1.5489 13.1817C1.55532 13.1465 1.55852 13.108 1.56493 13.0727C1.57776 12.9926 1.59058 12.9124 1.6034 12.8355C1.62905 12.6784 1.65791 12.5181 1.68996 12.361C1.80858 11.7679 1.96568 11.1812 2.16124 10.6073C2.26062 10.3092 2.37283 10.0175 2.49145 9.72571C2.50748 9.68404 2.54916 9.60389 2.46901 9.78022C2.48824 9.74174 2.50107 9.70327 2.5203 9.6616C2.54916 9.59748 2.57801 9.53015 2.60686 9.46603C2.67098 9.32497 2.73831 9.18391 2.80563 9.04285C3.07493 8.49784 3.37629 7.97206 3.71291 7.46873C3.87642 7.22188 4.04633 6.98143 4.22586 6.7474C4.23869 6.73137 4.32525 6.61916 4.2451 6.71854C4.16495 6.81793 4.25472 6.70572 4.26754 6.6929C4.31242 6.63839 4.3541 6.58389 4.39898 6.52939C4.49516 6.41077 4.59455 6.29215 4.69714 6.17353C5.09147 5.71829 5.51465 5.28549 5.96028 4.88475C6.17828 4.68918 6.4027 4.49683 6.63352 4.31409C6.66558 4.28844 6.70085 4.26279 6.73291 4.23715C6.82588 4.16341 6.69764 4.266 6.68802 4.27241C6.75214 4.23073 6.80985 4.17944 6.87397 4.13456C7.00221 4.03838 7.13365 3.9454 7.2683 3.85243C7.7556 3.51581 8.26214 3.21124 8.78792 2.93874C9.06363 2.79447 9.34575 2.65982 9.63108 2.53479C9.68558 2.51235 9.91 2.42899 9.6952 2.50594C9.76252 2.4835 9.82664 2.45144 9.89397 2.42579C10.0382 2.36808 10.1857 2.31037 10.3332 2.25908C10.9135 2.04749 11.5098 1.87437 12.1157 1.74292C12.4138 1.6756 12.7152 1.6211 13.0198 1.57621C13.0935 1.5666 13.164 1.55698 13.2378 1.54416C13.0005 1.58583 13.2506 1.54416 13.3083 1.53774C13.4686 1.51851 13.6321 1.50248 13.7924 1.48965C14.5105 1.42874 15.2351 1.42233 15.9532 1.47042C16.1488 1.48324 16.3443 1.49927 16.5367 1.52171C16.6329 1.53133 16.729 1.54416 16.8252 1.55698C17.0208 1.58263 16.6681 1.53454 16.8637 1.56339C16.9214 1.57301 16.9791 1.57942 17.0368 1.58904C17.444 1.65316 17.8511 1.73331 18.2519 1.83269C18.6302 1.92566 19.002 2.03466 19.3707 2.1597C19.5503 2.22061 19.7266 2.28473 19.9029 2.35205C19.9895 2.38411 20.0792 2.41938 20.1658 2.45464C20.2171 2.47708 20.2716 2.49632 20.3229 2.51876C20.1562 2.44502 20.3293 2.52197 20.3582 2.53479C20.5441 2.61494 20.7108 2.66303 20.9128 2.60853C21.0795 2.56364 21.2622 2.4322 21.3424 2.27832C21.5059 1.96734 21.4546 1.45118 21.0827 1.29089C19.4477 0.579167 17.7293 0.149571 15.95 0.0309516C14.5394 -0.0620206 13.1095 0.0565992 11.7278 0.357958C9.2079 0.912585 6.85473 2.15008 4.94079 3.87167C3.03325 5.58685 1.59379 7.80215 0.773066 10.229C-0.0861258 12.7649 -0.220775 15.5285 0.32744 18.1445C0.859626 20.6708 2.07788 23.0336 3.78665 24.9668C5.4858 26.8871 7.68828 28.3426 10.1056 29.1858C12.6318 30.0674 15.3954 30.2245 18.0146 29.6987C20.5505 29.189 22.9197 27.99 24.8689 26.2972C26.8053 24.6141 28.2768 22.4276 29.1392 20.0136C30.1331 17.2404 30.2613 14.1627 29.5432 11.3127C29.3348 10.4887 29.0495 9.69366 28.7096 8.91782C28.5589 8.57158 28.0236 8.46578 27.7222 8.65814C27.3599 8.89858 27.299 9.28329 27.4625 9.65518Z" fill="black"/>
<path d="M19.483 14.1371C19.8613 14.1371 20.2203 13.8069 20.2043 13.4157C20.1883 13.0246 19.8869 12.6944 19.483 12.6944C19.1047 12.6944 18.7456 13.0246 18.7616 13.4157C18.7777 13.8069 19.079 14.1371 19.483 14.1371Z" fill="black"/>
<path d="M16.5879 11.2421C16.9662 11.2421 17.3253 10.9119 17.3093 10.5208C17.2932 10.1297 16.9919 9.79944 16.5879 9.79944C16.2096 9.79944 15.8506 10.1297 15.8666 10.5208C15.8826 10.9119 16.1808 11.2421 16.5879 11.2421Z" fill="black"/>
<path d="M23.7821 13.0888C23.8109 13.217 23.8366 13.342 23.859 13.4703C23.8718 13.5408 23.8847 13.6081 23.8943 13.6786C23.8975 13.7075 23.9039 13.7396 23.9071 13.7684C23.9103 13.7909 23.9103 13.9095 23.9135 13.8229C23.9199 13.7299 23.9167 13.8518 23.9199 13.8774C23.9231 13.9063 23.9263 13.9383 23.9295 13.9672C23.936 14.0281 23.9424 14.089 23.9488 14.1499C23.9616 14.291 23.9712 14.4352 23.9776 14.5795C23.9969 15.0316 23.9873 15.4804 23.9456 15.9324C23.936 16.0286 23.9263 16.1248 23.9135 16.2177C23.8975 16.3524 23.936 16.0671 23.9167 16.2017C23.9071 16.2594 23.9007 16.3171 23.8911 16.3748C23.859 16.5704 23.8237 16.7628 23.7789 16.9551C23.6923 17.3398 23.5833 17.7213 23.4487 18.0932C23.4166 18.1798 23.3845 18.2663 23.3525 18.3529C23.3364 18.3914 23.3204 18.4331 23.3044 18.4715C23.2948 18.4972 23.2819 18.5228 23.2723 18.5517C23.2371 18.6382 23.3332 18.4138 23.2948 18.4972C23.2146 18.6703 23.1377 18.8466 23.0511 19.0165C22.878 19.3628 22.6824 19.6994 22.4676 20.02C22.3618 20.1771 22.2528 20.3342 22.1374 20.4849C22.1246 20.5009 22.1118 20.5169 22.099 20.5361C22.0541 20.6003 22.1502 20.4688 22.147 20.472C22.115 20.5073 22.0861 20.549 22.0541 20.5874C21.9932 20.6644 21.929 20.7381 21.8649 20.8151C21.6181 21.1036 21.3552 21.3761 21.0795 21.6326C20.9352 21.7672 20.7877 21.8955 20.637 22.0205C20.605 22.0461 20.5729 22.075 20.5377 22.1006C20.5216 22.1135 20.5056 22.1263 20.4896 22.1391C20.3966 22.2129 20.528 22.1103 20.5345 22.1039C20.4543 22.1584 20.3774 22.2225 20.2972 22.2802C19.9894 22.5014 19.6689 22.7066 19.3354 22.8893C19.1623 22.9855 18.986 23.0753 18.8065 23.1618C18.7295 23.1971 18.6526 23.2355 18.5756 23.2676C18.5532 23.2772 18.3897 23.3478 18.5051 23.2997C18.6205 23.2516 18.4378 23.3253 18.4153 23.3381C18.0563 23.4824 17.6876 23.6042 17.3157 23.7036C16.9278 23.8062 16.5366 23.8767 16.1391 23.9409C16.1327 23.9409 16.3026 23.9216 16.2225 23.928C16.2 23.9312 16.1776 23.9344 16.1551 23.9377C16.1038 23.9441 16.0526 23.9505 16.0013 23.9537C15.8987 23.9633 15.7961 23.9729 15.6903 23.9793C15.4883 23.9922 15.2863 24.0018 15.0844 24.005C14.6804 24.0082 14.2765 23.9889 13.8757 23.9409C13.8405 23.9377 13.6737 23.9152 13.7956 23.9312C13.9174 23.9473 13.7667 23.928 13.7379 23.9216C13.6289 23.9056 13.5199 23.8864 13.4141 23.8671C13.2217 23.8319 13.0294 23.7902 12.8402 23.7421C12.4651 23.6491 12.0932 23.5337 11.7309 23.3958C11.6444 23.3638 11.5578 23.3285 11.4713 23.2933C11.3526 23.2452 11.6123 23.3574 11.4681 23.2901C11.4232 23.2708 11.3783 23.2484 11.3334 23.2291C11.1539 23.1458 10.9743 23.0592 10.8012 22.9663C10.4646 22.7867 10.1408 22.588 9.82662 22.3732C9.75288 22.3219 9.67594 22.2674 9.60541 22.2129C9.56694 22.184 9.52526 22.1551 9.48679 22.1231C9.39382 22.0526 9.60861 22.2193 9.48358 22.1199C9.33611 22.0013 9.19184 21.8794 9.04757 21.7544C8.75904 21.4979 8.48653 21.2254 8.23327 20.9369C8.10823 20.7958 7.98641 20.6484 7.86779 20.5009C7.79085 20.4047 7.96717 20.6355 7.86458 20.4977C7.83893 20.4624 7.81329 20.4304 7.78764 20.3951C7.72993 20.3149 7.67223 20.2348 7.61772 20.1546C7.39651 19.8373 7.19775 19.5038 7.01501 19.1608C6.92524 18.9909 6.84189 18.821 6.76174 18.6446C6.74571 18.6062 6.72647 18.5677 6.71044 18.5292C6.63991 18.3689 6.75533 18.6414 6.70724 18.526C6.66877 18.4331 6.6335 18.3401 6.59824 18.2471C6.46038 17.8848 6.34497 17.5129 6.25199 17.1379C6.20391 16.9391 6.16223 16.7403 6.12376 16.5415C6.10773 16.4486 6.0917 16.3556 6.07887 16.2594C6.07567 16.2306 6.05323 16.0799 6.06926 16.2017C6.08529 16.3268 6.06284 16.1344 6.05643 16.0991C6.01155 15.6984 5.99231 15.2944 5.99552 14.8905C5.99873 14.6821 6.00834 14.4705 6.02117 14.2621C6.02758 14.1659 6.0372 14.0698 6.04681 13.9736C6.05002 13.9287 6.05643 13.887 6.06284 13.8421C6.06605 13.8197 6.06926 13.7973 6.07246 13.7748C6.08208 13.6818 6.04681 13.9447 6.06605 13.8133C6.18146 13.0343 6.38344 12.2712 6.67838 11.5403C6.688 11.5146 6.74571 11.3768 6.70083 11.489C6.65594 11.598 6.72006 11.4505 6.73289 11.4185C6.77456 11.3287 6.81624 11.2389 6.85792 11.1492C6.94127 10.976 7.02783 10.8093 7.1208 10.6426C7.30675 10.3124 7.51193 9.98861 7.73314 9.68084C7.78764 9.6071 7.84535 9.53657 7.89664 9.46283C7.78123 9.63595 7.86779 9.5013 7.89985 9.45963C7.93511 9.41474 7.97038 9.37307 8.00564 9.32818C8.12747 9.18392 8.2493 9.03965 8.38074 8.90179C8.63721 8.62608 8.91292 8.3632 9.19825 8.11634C9.26878 8.05863 9.33931 7.99772 9.40984 7.94322C9.44832 7.91436 9.48999 7.88551 9.52526 7.85025C9.52846 7.84704 9.40023 7.94322 9.46114 7.89834C9.48999 7.8791 9.51564 7.85666 9.54449 7.83422C9.69517 7.72201 9.85226 7.61301 10.0094 7.50721C10.3267 7.29882 10.657 7.10647 10.9968 6.93655C11.1667 6.8532 11.3526 6.78908 11.5161 6.6929C11.5065 6.69931 11.3494 6.76023 11.4616 6.71534C11.4809 6.70573 11.5001 6.69931 11.5194 6.6897C11.5578 6.67367 11.5995 6.65764 11.638 6.64161C11.7374 6.60314 11.8367 6.56466 11.9393 6.5294C12.3048 6.40116 12.6799 6.29216 13.0614 6.2088C13.2538 6.16713 13.4461 6.12866 13.6417 6.0998C13.693 6.09018 13.7443 6.08377 13.7924 6.07736C13.927 6.05813 13.6417 6.0966 13.7763 6.08057C13.8789 6.06774 13.9815 6.05813 14.0841 6.04851C14.5361 6.00683 14.9914 5.99721 15.4434 6.01965C15.5749 6.02607 15.7095 6.03568 15.841 6.0453C15.9019 6.05171 15.9628 6.05813 16.0237 6.06454C16.0654 6.06774 16.1038 6.07415 16.1455 6.07736C16.1583 6.07736 16.2609 6.0966 16.1712 6.08057C16.0846 6.06454 16.2577 6.09339 16.2834 6.0966C16.3539 6.10621 16.4212 6.11904 16.4918 6.13186C16.6296 6.15751 16.7675 6.18316 16.9021 6.21522C17.2708 6.29536 17.7004 6.10621 17.7902 5.71188C17.8735 5.34641 17.6812 4.9104 17.2868 4.82384C15.3825 4.40707 13.3596 4.50004 11.5194 5.16046C9.93562 5.72791 8.48974 6.66084 7.34201 7.89834C6.19429 9.13583 5.34792 10.649 4.90871 12.2776C4.45026 13.9832 4.43423 15.8042 4.8542 17.5194C5.25815 19.1704 6.08849 20.7029 7.21698 21.9692C8.33906 23.2291 9.7657 24.1813 11.3398 24.7808C12.9877 25.406 14.7734 25.5631 16.5142 25.3226C18.1524 25.095 19.7522 24.4442 21.0859 23.4664C22.4388 22.4757 23.5673 21.187 24.3143 19.6802C25.1125 18.074 25.5005 16.2722 25.4075 14.4801C25.3754 13.8838 25.2921 13.2843 25.167 12.7008C25.0869 12.3321 24.6381 12.0821 24.279 12.1975C23.8975 12.3289 23.6955 12.6944 23.7821 13.0888Z" fill="black"/>
<path d="M19.483 14.1371C19.8613 14.1371 20.2203 13.8069 20.2043 13.4157C20.1883 13.0246 19.8869 12.6944 19.483 12.6944C19.1047 12.6944 18.7456 13.0246 18.7616 13.4157C18.7777 13.8069 19.079 14.1371 19.483 14.1371Z" fill="black"/>
<path d="M18.7873 13.6081C18.8706 13.8518 18.9379 14.0986 18.986 14.3519C18.9924 14.3904 18.9988 14.4288 19.0053 14.4673C19.0213 14.5507 19.0021 14.4224 18.9988 14.4192C19.0181 14.4673 19.0117 14.541 19.0181 14.5923C19.0309 14.7302 19.0373 14.868 19.0373 15.0059C19.0373 15.1117 19.0341 15.2175 19.0277 15.3201C19.0245 15.365 19.0213 15.4099 19.0181 15.4547C19.0149 15.4772 19.0149 15.4996 19.0117 15.5221C18.9988 15.6375 19.0085 15.5445 19.0181 15.4836C18.9828 15.6759 18.9508 15.8683 18.8995 16.0607C18.8738 16.1504 18.8482 16.2402 18.8193 16.33C18.7905 16.4197 18.7295 16.5191 18.7167 16.6121C18.7167 16.6153 18.7808 16.4678 18.7488 16.5383C18.736 16.564 18.7263 16.5896 18.7135 16.6153C18.6975 16.6538 18.6783 16.6922 18.659 16.7307C18.6141 16.8205 18.5693 16.907 18.5212 16.9936C18.4218 17.1667 18.3096 17.3238 18.1974 17.4873C18.1557 17.5514 18.2487 17.42 18.2455 17.4264C18.2326 17.4424 18.2198 17.4584 18.207 17.4745C18.1749 17.513 18.1461 17.5514 18.114 17.5867C18.0499 17.6604 17.9858 17.7342 17.9152 17.8047C17.7838 17.9393 17.6459 18.0676 17.4985 18.1894C17.4824 18.2022 17.4664 18.2151 17.4504 18.2279C17.4023 18.2663 17.3734 18.2535 17.4953 18.1926C17.46 18.2086 17.4247 18.2439 17.3927 18.2663C17.3125 18.3241 17.2292 18.3786 17.1458 18.4298C16.9791 18.5356 16.8028 18.6286 16.6232 18.712C16.5848 18.728 16.5431 18.744 16.5078 18.7633C16.5046 18.7665 16.6553 18.7056 16.5816 18.7312C16.5559 18.7408 16.5271 18.7536 16.5014 18.7633C16.4084 18.7985 16.3123 18.8306 16.2161 18.8627C16.0301 18.9204 15.8378 18.9652 15.6454 19.0005C15.6038 19.0069 15.5589 19.0133 15.514 19.0229C15.389 19.0422 15.6775 19.0037 15.5076 19.0229C15.405 19.0326 15.2992 19.0422 15.1966 19.0454C14.9946 19.055 14.7927 19.0486 14.5907 19.0326C14.5394 19.0294 14.4881 19.0229 14.4368 19.0165C14.3566 19.0101 14.5266 19.0294 14.5201 19.0294C14.4977 19.0262 14.4753 19.0229 14.456 19.0197C14.347 19.0037 14.2412 18.9813 14.1354 18.9588C13.9463 18.9172 13.7603 18.8626 13.5776 18.7953C13.5359 18.7793 13.4975 18.7665 13.459 18.7504C13.2955 18.6863 13.568 18.8017 13.4526 18.7504C13.3628 18.7088 13.273 18.6671 13.1833 18.6222C13.0134 18.5356 12.8499 18.4363 12.6928 18.3305C12.6511 18.3016 12.6126 18.276 12.5709 18.2471C12.5549 18.2343 12.5389 18.2215 12.5196 18.2086C12.4555 18.167 12.587 18.2599 12.5806 18.2567C12.51 18.1894 12.4267 18.1349 12.3529 18.0676C12.2055 17.9361 12.0676 17.7983 11.9362 17.6508C11.8752 17.5835 11.8207 17.5097 11.7598 17.4424C11.7117 17.3847 11.8111 17.5097 11.8079 17.5065C11.8015 17.4905 11.7823 17.4713 11.7695 17.4552C11.7374 17.4104 11.7053 17.3655 11.6733 17.3174C11.5675 17.1603 11.4681 16.9968 11.3815 16.8269C11.3399 16.7435 11.3014 16.6602 11.2629 16.5768C11.1956 16.4325 11.3078 16.689 11.2597 16.5736C11.2405 16.5255 11.2244 16.4806 11.2052 16.4325C11.1379 16.2434 11.0802 16.0478 11.0385 15.8523C11.0193 15.7593 11 15.6663 10.984 15.5734C10.9808 15.5509 10.9776 15.5285 10.9744 15.5092C10.9616 15.4291 10.9872 15.599 10.984 15.5926C10.9808 15.5349 10.9712 15.474 10.9648 15.4163C10.9487 15.2143 10.9423 15.0123 10.9519 14.8103C10.9551 14.7142 10.9616 14.618 10.9744 14.5218C10.9776 14.4994 10.9808 14.4769 10.9808 14.4545C10.9904 14.3583 10.9583 14.6116 10.9712 14.5154C10.9808 14.4641 10.9872 14.4128 10.9968 14.3647C11.0321 14.1724 11.077 13.9832 11.1347 13.7941C11.1635 13.7043 11.1924 13.6177 11.2244 13.5312C11.2341 13.5087 11.3014 13.342 11.2501 13.4574C11.202 13.5728 11.2789 13.3933 11.2918 13.3677C11.3719 13.1945 11.4617 13.0278 11.5643 12.8643C11.6124 12.7874 11.6637 12.7105 11.715 12.6367C11.7406 12.6014 11.7823 12.5566 11.8015 12.5181C11.8047 12.5149 11.7053 12.6399 11.7534 12.5822C11.7727 12.5598 11.7887 12.5373 11.8047 12.5181C11.9233 12.3706 12.0516 12.2328 12.1894 12.1013C12.2535 12.0372 12.3209 11.9763 12.3914 11.9186C12.4299 11.8865 12.4651 11.8545 12.5036 11.8256C12.5196 11.8128 12.5357 11.8 12.5517 11.7871C12.619 11.7326 12.401 11.8961 12.5228 11.8096C12.6767 11.7006 12.8338 11.5948 13.0005 11.4986C13.0807 11.4537 13.1608 11.4088 13.2442 11.3704C13.2827 11.3511 13.3211 11.3319 13.3596 11.3159C13.3852 11.303 13.4109 11.2934 13.4365 11.2806C13.5263 11.2389 13.4077 11.2998 13.382 11.303C13.4686 11.2902 13.5584 11.2325 13.6417 11.2069C13.7379 11.1748 13.8341 11.146 13.9303 11.1203C14.1194 11.069 14.3118 11.037 14.5073 11.0017C14.2893 11.0402 14.4592 11.0081 14.5137 11.0049C14.565 10.9985 14.6163 10.9953 14.6676 10.9921C14.7734 10.9857 14.876 10.9824 14.9818 10.9824C15.11 10.9824 15.2383 10.9889 15.3665 10.9985C15.4242 11.0017 15.4819 11.0113 15.5428 11.0145C15.6294 11.0241 15.498 11.0081 15.4948 11.0081C15.53 11.0017 15.6005 11.0241 15.639 11.0305C15.8923 11.0754 16.1391 11.1427 16.3828 11.2293C16.7387 11.3543 17.1875 11.0882 17.2708 10.726C17.3638 10.3252 17.149 9.97258 16.7675 9.83793C14.8343 9.16468 12.6351 9.67122 11.1667 11.085C9.79459 12.4091 9.23035 14.3904 9.64071 16.2466C10.0447 18.0708 11.4168 19.5519 13.1576 20.1899C14.969 20.8503 17.0048 20.4336 18.4859 19.2345C20.0215 17.9906 20.698 15.9645 20.3742 14.0377C20.3293 13.7652 20.2588 13.4959 20.1658 13.2362C20.0408 12.8804 19.6657 12.6079 19.2778 12.7329C18.9379 12.8355 18.6526 13.2266 18.7873 13.6081Z" fill="black"/>
<path d="M28.7674 3.72419C28.1069 4.38461 27.4465 5.04504 26.7893 5.70225C25.7474 6.74418 24.7022 7.78932 23.6603 8.83125C23.4199 9.0717 23.1762 9.31535 22.9358 9.55579C23.1057 9.48526 23.2756 9.41473 23.4455 9.3442C22.4292 9.33779 21.4129 9.32817 20.3967 9.32176C20.2524 9.32176 20.1081 9.31855 19.9606 9.31855C20.2011 9.559 20.4415 9.79945 20.682 10.0399C20.6756 9.02361 20.666 8.00732 20.6595 6.99104C20.6595 6.84677 20.6563 6.70251 20.6563 6.55503C20.5858 6.72495 20.5153 6.89486 20.4447 7.06478C21.1052 6.40436 21.7656 5.74393 22.4228 5.08671C23.4647 4.04478 24.5099 2.99965 25.5518 1.95772C25.7922 1.71727 26.0359 1.47362 26.2763 1.23317C25.866 1.06326 25.4556 0.893345 25.0453 0.72343C25.0517 1.73971 25.0613 2.756 25.0677 3.77228C25.0677 3.91655 25.0709 4.06081 25.0709 4.20829C25.0741 4.59941 25.3979 4.92642 25.7922 4.92962C26.8085 4.93603 27.8248 4.94565 28.8411 4.95206C28.9854 4.95206 29.1296 4.95527 29.2771 4.95527C29.6554 4.95848 30.0145 4.62185 29.9984 4.23393C29.9824 3.8396 29.6811 3.5158 29.2771 3.5126C28.2608 3.50619 27.2445 3.49657 26.2283 3.49016C26.084 3.49016 25.9397 3.48695 25.7922 3.48695C26.0327 3.7274 26.2731 3.96784 26.5136 4.20829C26.5072 3.192 26.4976 2.17572 26.4911 1.15944C26.4911 1.01517 26.4879 0.870903 26.4879 0.72343C26.4847 0.101477 25.6993 -0.23194 25.2569 0.213685C24.885 0.585574 24.5131 0.957463 24.1412 1.32935C23.3718 2.09878 22.6023 2.8682 21.8329 3.63763C21.1693 4.30126 20.5057 4.96489 19.8388 5.63172C19.7042 5.76637 19.5631 5.89782 19.4317 6.03888C19.1495 6.34665 19.2137 6.7506 19.2137 7.1321C19.2201 8.07786 19.2265 9.02681 19.2329 9.97257C19.2329 9.99501 19.2329 10.0174 19.2329 10.0399C19.2361 10.431 19.5599 10.758 19.9542 10.7612C20.807 10.7676 21.6598 10.7741 22.5158 10.7805C22.8203 10.7837 23.1313 10.7965 23.4359 10.7869C23.7949 10.7741 23.9841 10.54 24.2085 10.3124C24.8241 9.69686 25.4396 9.08132 26.0551 8.46577C26.8438 7.67711 27.6293 6.89166 28.4179 6.103C28.8635 5.65737 29.322 5.22136 29.758 4.76291C29.7644 4.7565 29.7708 4.75009 29.7804 4.74047C30.0465 4.47438 30.069 3.98387 29.7804 3.72098C29.4983 3.4613 29.0527 3.43886 28.7674 3.72419Z" fill="black"/>
<path d="M15.5525 15.4708C16.1039 14.9193 16.6586 14.3647 17.21 13.8133C18.0948 12.9285 18.9797 12.0436 19.8645 11.1588C20.0665 10.9568 20.2684 10.7548 20.4704 10.5529C20.7365 10.2868 20.759 9.79625 20.4704 9.53336C20.1819 9.27048 19.7363 9.24804 19.4509 9.53336C18.8995 10.0848 18.3449 10.6394 17.7935 11.1908C16.9086 12.0757 16.0238 12.9605 15.1389 13.8454C14.937 14.0473 14.735 14.2493 14.533 14.4513C14.2669 14.7174 14.2445 15.2079 14.533 15.4708C14.8216 15.7369 15.2672 15.7561 15.5525 15.4708Z" fill="black"/>
</svg>
