<svg width="29" height="30" viewBox="0 0 29 30" fill="none" xmlns="http://www.w3.org/2000/svg">
<path fill-rule="evenodd" clip-rule="evenodd" d="M14.7869 3.37705C14.7869 3.7377 14.4918 4.03279 14.1311 4.03279C13.7705 4.03279 13.4754 3.7377 13.4754 3.37705V0.655738C13.4754 0.295082 13.7705 0 14.1311 0C14.4918 0 14.7869 0.295082 14.7869 0.655738V3.37705ZM21.7377 7.21313C21.9017 7.21313 22.0656 7.14754 22.1967 7.01639L24.1312 5.08198C24.3935 4.81968 24.3935 4.42624 24.1312 4.16395C23.8689 3.90165 23.4754 3.90165 23.2131 4.16395L21.2787 6.09836C21.0164 6.36066 21.0164 6.7541 21.2787 7.01639C21.4098 7.14754 21.5738 7.21313 21.7377 7.21313ZM14.1312 6.72132C18.2295 6.72132 21.5738 10.0656 21.5738 14.1639C21.5738 14.7541 21.5082 15.3443 21.3443 15.9344C21.1509 16.8691 20.7991 17.4552 20.3201 18.2534L20.2951 18.2951C20.2338 18.4178 20.1597 18.5404 20.0808 18.671C20.0332 18.7499 19.9838 18.8317 19.9345 18.9181L19.934 18.9188C19.7702 19.1808 19.6065 19.4429 19.4754 19.6721C18.8197 20.7213 18.4262 21.3771 18.4262 22.6558V25.7377C18.4262 26.4918 17.8689 27.1476 17.1148 27.2787C16.8197 28.9508 15.8033 30 14.1312 30C12.459 30 11.4754 28.9508 11.1476 27.2787C10.3935 27.1476 9.83609 26.5246 9.83609 25.7377V22.6558C9.83609 21.4025 9.45812 20.7791 8.82566 19.7361L8.78691 19.6721C8.68659 19.5317 8.59856 19.379 8.50777 19.2215C8.45019 19.1216 8.3915 19.0198 8.32788 18.9181C8.27852 18.8317 8.22916 18.7499 8.18155 18.6711L8.18152 18.671C8.10264 18.5404 8.02857 18.4178 7.96723 18.2951L7.94223 18.2534L7.94222 18.2534C7.46319 17.4552 7.11142 16.8691 6.91805 15.9344C6.75412 15.3443 6.68854 14.7541 6.68854 14.1639C6.68854 10.0656 10.0328 6.72132 14.1312 6.72132ZM11.1803 23.4426H17.1148V22.6885C17.1148 22.602 17.1239 22.5246 17.1325 22.4515C17.1403 22.3861 17.1476 22.3242 17.1476 22.2623H11.1476C11.1803 22.3934 11.1803 22.5245 11.1803 22.6884V22.6885V23.4426ZM11.1476 25.7705C11.1476 25.9017 11.2459 26.0328 11.4099 26.0328H16.8525C17.0164 26.0328 17.1476 25.9017 17.1148 25.7705V24.7541H11.1476V25.7705ZM12.4918 27.3443C12.8525 28.7213 13.7705 28.7213 14.1312 28.7213C14.4918 28.7213 15.4426 28.7213 15.8033 27.3443H12.4918ZM19.1804 17.6394C19.6394 16.8853 19.9017 16.3935 20.0656 15.6721C20.1967 15.1475 20.2623 14.6558 20.3279 14.1639C20.3279 10.7869 17.5738 8.03279 14.1967 8.03279C10.8197 8.03279 8.06559 10.7869 8.06559 14.1639C8.06559 14.6558 8.13116 15.1476 8.26231 15.6394C8.42624 16.3935 8.68854 16.8525 9.14756 17.6394C9.24592 17.8033 9.37708 18.0328 9.50822 18.2623C9.58942 18.4247 9.68319 18.5745 9.77397 18.7196L9.774 18.7196C9.82983 18.8088 9.88451 18.8962 9.93445 18.9836C10.3607 19.6393 10.6885 20.2295 10.9181 20.918H17.4099C17.6317 20.2525 17.9761 19.6789 18.3541 19.0491L18.3935 18.9836C18.4631 18.8791 18.5328 18.7561 18.6074 18.6245L18.6074 18.6245L18.6074 18.6244L18.6074 18.6244L18.6075 18.6243C18.6733 18.5081 18.7429 18.3852 18.8197 18.2623C18.8603 18.1913 18.8977 18.1234 18.934 18.0577L18.934 18.0577C19.0149 17.911 19.0898 17.7752 19.1804 17.6394ZM24.918 13.5082H27.6393C28 13.5082 28.2951 13.8033 28.2951 14.1639C28.2951 14.5246 28 14.8197 27.6393 14.8197H24.918C24.5574 14.8197 24.2623 14.5246 24.2623 14.1639C24.2623 13.8033 24.5574 13.5082 24.918 13.5082ZM6.06561 7.01639C6.19675 7.14754 6.36068 7.21313 6.52461 7.21313C6.68854 7.21313 6.85249 7.14754 6.98363 7.01639C7.24593 6.7541 7.24593 6.36066 6.98363 6.09836L5.0492 4.16395C4.7869 3.90165 4.39347 3.90165 4.13117 4.16395C3.86887 4.42624 3.86887 4.81968 4.13117 5.08198L6.06561 7.01639ZM0.655739 13.5082H3.37705C3.7377 13.5082 4.03279 13.8033 4.03279 14.1639C4.03279 14.5246 3.7377 14.8197 3.37705 14.8197H0.655739C0.295082 14.8197 0 14.5246 0 14.1639C0 13.8033 0.295082 13.5082 0.655739 13.5082ZM6.06561 21.3115L4.13117 23.2459C3.86887 23.5082 3.86887 23.9017 4.13117 24.164C4.26232 24.2951 4.42626 24.3607 4.59019 24.3607C4.75413 24.3607 4.91805 24.2951 5.0492 24.164L6.98363 22.2295C7.24593 21.9672 7.24593 21.5738 6.98363 21.3115C6.72134 21.0492 6.29511 21.0492 6.06561 21.3115ZM21.2787 21.3115C21.541 21.0492 21.9344 21.0492 22.1967 21.3115L24.1312 23.2459C24.3935 23.5082 24.3935 23.9017 24.1312 24.164C24 24.2951 23.8361 24.3607 23.6721 24.3607C23.5082 24.3607 23.3443 24.2951 23.2131 24.164L21.2787 22.2295C21.0164 21.9672 21.0164 21.5738 21.2787 21.3115Z" fill="black"/>
</svg>
