<svg width="32" height="25" viewBox="0 0 32 25" fill="none" xmlns="http://www.w3.org/2000/svg">
<path fill-rule="evenodd" clip-rule="evenodd" d="M5.3948 5.28571C5.89516 2.84863 8.06416 1 10.6435 1C13.2228 1 15.3918 2.84863 15.892 5.28571H29.9133C31.3622 5.2652 31.3622 7.44902 29.9133 7.42856H15.892C15.3918 9.86564 13.2228 11.7143 10.6435 11.7143C8.06416 11.7143 5.89516 9.86564 5.3948 7.42856H2.08634C1.49534 7.43665 1.01085 6.96506 1.00013 6.36759C0.990809 5.77013 1.48227 5.27714 2.08634 5.28571H5.3948ZM13.8579 6.35713C13.8579 4.56924 12.4314 3.14285 10.6435 3.14285C8.85551 3.14285 7.42901 4.56924 7.42901 6.35713C7.42901 8.14502 8.85551 9.57141 10.6435 9.57141C12.4314 9.57141 13.8579 8.14502 13.8579 6.35713ZM16.1096 18.1428C16.6099 15.7058 18.779 13.8571 21.3582 13.8571C23.9375 13.8571 26.1064 15.7058 26.6067 18.1428H29.9133C31.3622 18.1223 31.3622 20.3061 29.9133 20.2857H26.6067C26.1064 22.7228 23.9375 24.5714 21.3582 24.5714C18.779 24.5714 16.6099 22.7228 16.1096 20.2857H2.08634C1.49534 20.2938 1.01085 19.8222 1.00013 19.2247C0.990809 18.6273 1.48227 18.1343 2.08634 18.1428H16.1096ZM24.5726 19.2143C24.5726 17.4264 23.1462 16 21.3582 16C19.5702 16 18.1438 17.4264 18.1438 19.2143C18.1438 21.0021 19.5702 22.4285 21.3582 22.4285C23.1462 22.4285 24.5726 21.0021 24.5726 19.2143Z" fill="black"/>
<path d="M5.3948 5.28571V5.53571H5.59869L5.63969 5.33599L5.3948 5.28571ZM15.892 5.28571L15.6471 5.33598L15.6881 5.53571H15.892V5.28571ZM29.9133 5.28571V5.53573L29.9169 5.53568L29.9133 5.28571ZM29.9133 7.42856L29.9169 7.17856H29.9133V7.42856ZM15.892 7.42856V7.17856H15.6881L15.6471 7.37829L15.892 7.42856ZM5.3948 7.42856L5.63969 7.37828L5.59869 7.17856H5.3948V7.42856ZM2.08634 7.42856V7.17854L2.08292 7.17858L2.08634 7.42856ZM1.00013 6.36759L0.75016 6.37149L0.750171 6.37207L1.00013 6.36759ZM2.08634 5.28571L2.0828 5.53571H2.08634V5.28571ZM16.1096 18.1428V18.3928H16.3135L16.3545 18.1931L16.1096 18.1428ZM26.6067 18.1428L26.3618 18.1931L26.4028 18.3928H26.6067V18.1428ZM29.9133 18.1428V18.3929L29.9169 18.3928L29.9133 18.1428ZM29.9133 20.2857L29.9169 20.0357H29.9133V20.2857ZM26.6067 20.2857V20.0357H26.4028L26.3618 20.2354L26.6067 20.2857ZM16.1096 20.2857L16.3545 20.2354L16.3135 20.0357H16.1096V20.2857ZM2.08634 20.2857V20.0357L2.08292 20.0357L2.08634 20.2857ZM1.00013 19.2247L0.75016 19.2286L0.750171 19.2292L1.00013 19.2247ZM2.08634 18.1428L2.0828 18.3928H2.08634V18.1428ZM10.6435 0.75C7.94254 0.75 5.67354 2.68497 5.14991 5.23543L5.63969 5.33599C6.11677 3.01228 8.18577 1.25 10.6435 1.25V0.75ZM16.1369 5.23544C15.6134 2.68498 13.3444 0.75 10.6435 0.75V1.25C13.1011 1.25 15.1701 3.01228 15.6471 5.33598L16.1369 5.23544ZM29.9133 5.03571H15.892V5.53571H29.9133V5.03571ZM29.9098 7.67854C30.3403 7.68462 30.6824 7.52464 30.9143 7.26659C31.1419 7.01335 31.25 6.68094 31.25 6.35712C31.25 6.0333 31.1419 5.70088 30.9143 5.44765C30.6824 5.18961 30.3403 5.02964 29.9098 5.03573L29.9169 5.53568C30.2108 5.53152 30.4121 5.63684 30.5424 5.78186C30.677 5.93168 30.75 6.1401 30.75 6.35712C30.75 6.57413 30.677 6.78255 30.5424 6.93239C30.4121 7.07741 30.2108 7.18274 29.9169 7.17859L29.9098 7.67854ZM15.892 7.67856H29.9133V7.17856H15.892V7.67856ZM10.6435 11.9643C13.3444 11.9643 15.6134 10.0293 16.1369 7.47883L15.6471 7.37829C15.1701 9.70199 13.1011 11.4643 10.6435 11.4643V11.9643ZM5.14991 7.47884C5.67354 10.0293 7.94254 11.9643 10.6435 11.9643V11.4643C8.18577 11.4643 6.11677 9.70198 5.63969 7.37828L5.14991 7.47884ZM2.08634 7.67856H5.3948V7.17856H2.08634V7.67856ZM0.750171 6.37207C0.763325 7.10552 1.35947 7.68853 2.08977 7.67854L2.08292 7.17858C1.63122 7.18477 1.25837 6.8246 1.25009 6.36311L0.750171 6.37207ZM2.08989 5.03573C1.34561 5.02517 0.738628 5.6323 0.750161 6.37149L1.2501 6.36369C1.24299 5.90796 1.61894 5.5291 2.0828 5.53568L2.08989 5.03573ZM5.3948 5.03571H2.08634V5.53571H5.3948V5.03571ZM10.6435 3.39285C12.2933 3.39285 13.6079 4.70733 13.6079 6.35713H14.1079C14.1079 4.43116 12.5695 2.89285 10.6435 2.89285V3.39285ZM7.67901 6.35713C7.67901 4.70733 8.99357 3.39285 10.6435 3.39285V2.89285C8.71746 2.89285 7.17901 4.43116 7.17901 6.35713H7.67901ZM10.6435 9.32141C8.99357 9.32141 7.67901 8.00694 7.67901 6.35713H7.17901C7.17901 8.28311 8.71746 9.82141 10.6435 9.82141V9.32141ZM13.6079 6.35713C13.6079 8.00694 12.2933 9.32141 10.6435 9.32141V9.82141C12.5695 9.82141 14.1079 8.28311 14.1079 6.35713H13.6079ZM21.3582 13.6071C18.6573 13.6071 16.3882 15.5421 15.8647 18.0926L16.3545 18.1931C16.8315 15.8694 18.9006 14.1071 21.3582 14.1071V13.6071ZM26.8516 18.0926C26.3281 15.5421 24.0591 13.6071 21.3582 13.6071V14.1071C23.8158 14.1071 25.8848 15.8694 26.3618 18.1931L26.8516 18.0926ZM29.9133 17.8928H26.6067V18.3928H29.9133V17.8928ZM29.9098 20.5357C30.3403 20.5417 30.6824 20.3818 30.9143 20.1237C31.1419 19.8705 31.25 19.5381 31.25 19.2142C31.25 18.8904 31.1419 18.558 30.9143 18.3048C30.6824 18.0467 30.3403 17.8868 29.9098 17.8929L29.9169 18.3928C30.2108 18.3886 30.4121 18.494 30.5424 18.639C30.677 18.7888 30.75 18.9972 30.75 19.2142C30.75 19.4313 30.677 19.6397 30.5424 19.7895C30.4121 19.9345 30.2108 20.0399 29.9169 20.0357L29.9098 20.5357ZM26.6067 20.5357H29.9133V20.0357H26.6067V20.5357ZM21.3582 24.8214C24.0591 24.8214 26.3281 22.8864 26.8516 20.336L26.3618 20.2354C25.8848 22.5591 23.8158 24.3214 21.3582 24.3214V24.8214ZM15.8647 20.336C16.3882 22.8864 18.6573 24.8214 21.3582 24.8214V24.3214C18.9006 24.3214 16.8315 22.5591 16.3545 20.2354L15.8647 20.336ZM2.08634 20.5357H16.1096V20.0357H2.08634V20.5357ZM0.750171 19.2292C0.763325 19.9626 1.35947 20.5457 2.08977 20.5357L2.08292 20.0357C1.63122 20.0419 1.25837 19.6817 1.25009 19.2202L0.750171 19.2292ZM2.08989 17.8929C1.34561 17.8823 0.738628 18.4894 0.750161 19.2286L1.2501 19.2208C1.24299 18.7651 1.61894 18.3862 2.0828 18.3928L2.08989 17.8929ZM16.1096 17.8928H2.08634V18.3928H16.1096V17.8928ZM21.3582 16.25C23.0081 16.25 24.3226 17.5644 24.3226 19.2143H24.8226C24.8226 17.2883 23.2843 15.75 21.3582 15.75V16.25ZM18.3938 19.2143C18.3938 17.5644 19.7083 16.25 21.3582 16.25V15.75C19.4321 15.75 17.8938 17.2883 17.8938 19.2143H18.3938ZM21.3582 22.1785C19.7083 22.1785 18.3938 20.8641 18.3938 19.2143H17.8938C17.8938 21.1402 19.4321 22.6785 21.3582 22.6785V22.1785ZM24.3226 19.2143C24.3226 20.8641 23.0081 22.1785 21.3582 22.1785V22.6785C23.2843 22.6785 24.8226 21.1402 24.8226 19.2143H24.3226Z" fill="white"/>
</svg>
