<svg width="30" height="30" viewBox="0 0 30 30" fill="none" xmlns="http://www.w3.org/2000/svg">
<path d="M8.68553 24.9345L24.9361 8.68396L21.316 5.06391L5.06548 21.3145L8.68553 24.9345ZM14.2114 21.6415L9.24372 26.6091L8.97871 26.7839L1.08464 29.9415C0.440236 30.1992 -0.199247 29.5598 0.058514 28.9154L3.21614 21.0213L3.39089 20.7563L8.35855 15.7886L0.233265 7.66334C-0.0750174 7.35506 -0.0750174 6.85523 0.233265 6.54695L6.54852 0.231696C6.8568 -0.0765865 7.35663 -0.0765865 7.66491 0.231696L15.7902 8.35698L23.4529 0.694288C24.3786 -0.231429 25.8784 -0.231429 26.8017 0.694288L29.305 3.19757C30.2314 4.12164 30.2314 5.6214 29.3057 6.54712L21.643 14.2098L29.7683 22.3351C30.0766 22.6434 30.0766 23.1432 29.7683 23.4515L23.453 29.7667C23.1448 30.075 22.6449 30.075 22.3367 29.7667L14.2114 21.6415ZM15.3278 20.5251L22.8949 28.0921L28.0937 22.8933L26.0525 20.852L25.0319 21.8727C24.2876 22.6169 23.1712 21.5005 23.9155 20.7563L24.9361 19.7357L22.8949 17.6944L20.2954 20.2939C19.5512 21.0381 18.4348 19.9217 19.179 19.1775L21.7785 16.578L20.5266 15.3262L15.3278 20.5251ZM9.47494 14.6722L14.6738 9.47337L13.422 8.22154L12.4014 9.24216C11.6571 9.98641 10.5407 8.87002 11.285 8.12576L12.3056 7.10515L10.2643 5.06391L7.66491 7.66334C6.92065 8.4076 5.80426 7.29121 6.54852 6.54695L9.14795 3.94752L7.10672 1.90628L1.90785 7.10515L9.47494 14.6722ZM7.28081 25.7626L4.23742 22.7192L2.20849 27.7915L7.28081 25.7626ZM22.4324 3.94752L26.0525 7.56757L28.1893 5.43073C28.4982 5.12182 28.4982 4.6228 28.1893 4.31468L25.6846 1.80996C25.3772 1.50176 24.8782 1.50176 24.5693 1.81068L22.4324 3.94752Z" fill="black"/>
</svg>
